  0
SECTION
  2
HEADER
  9
$ACADVER
  1
AC1015
  9
$ACADMAINTVER
 70
    11
  9
$DWGCODEPAGE
  3
ANSI_1252
  9
$INSBASE
 10
0.0
 20
0.0
 30
0.0
  9
$EXTMIN
 10
-0.8153509446137224
 20
3.044964916316895
 30
0.0
  9
$EXTMAX
 10
25.50674113972517
 20
11.71346695699736
 30
0.0
  9
$LIMMIN
 10
0.0
 20
0.0
  9
$LIMMAX
 10
12.0
 20
9.0
  9
$ORTHOMODE
 70
     1
  9
$REGENMODE
 70
     1
  9
$FILLMODE
 70
     1
  9
$QTEXTMODE
 70
     0
  9
$MIRRTEXT
 70
     1
  9
$LTSCALE
 40
0.1
  9
$ATTMODE
 70
     1
  9
$TEXTSIZE
 40
0.2
  9
$TRACEWID
 40
0.05
  9
$TEXTSTYLE
  7
Standard
  9
$CLAYER
  8
0
  9
$CELTYPE
  6
ByLayer
  9
$CECOLOR
 62
   256
  9
$CELTSCALE
 40
1.0
  9
$DISPSILH
 70
     0
  9
$DIMSCALE
 40
1.0
  9
$DIMASZ
 40
0.18
  9
$DIMEXO
 40
0.0625
  9
$DIMDLI
 40
0.38
  9
$DIMRND
 40
0.0
  9
$DIMDLE
 40
0.0
  9
$DIMEXE
 40
0.18
  9
$DIMTP
 40
0.0
  9
$DIMTM
 40
0.0
  9
$DIMTXT
 40
0.18
  9
$DIMCEN
 40
0.09
  9
$DIMTSZ
 40
0.0
  9
$DIMTOL
 70
     0
  9
$DIMLIM
 70
     0
  9
$DIMTIH
 70
     1
  9
$DIMTOH
 70
     1
  9
$DIMSE1
 70
     0
  9
$DIMSE2
 70
     0
  9
$DIMTAD
 70
     0
  9
$DIMZIN
 70
     0
  9
$DIMBLK
  1

  9
$DIMASO
 70
     1
  9
$DIMSHO
 70
     1
  9
$DIMPOST
  1

  9
$DIMAPOST
  1

  9
$DIMALT
 70
     0
  9
$DIMALTD
 70
     2
  9
$DIMALTF
 40
25.4
  9
$DIMLFAC
 40
1.0
  9
$DIMTOFL
 70
     0
  9
$DIMTVP
 40
0.0
  9
$DIMTIX
 70
     0
  9
$DIMSOXD
 70
     0
  9
$DIMSAH
 70
     0
  9
$DIMBLK1
  1

  9
$DIMBLK2
  1

  9
$DIMSTYLE
  2
Standard
  9
$DIMCLRD
 70
     0
  9
$DIMCLRE
 70
     0
  9
$DIMCLRT
 70
     0
  9
$DIMTFAC
 40
1.0
  9
$DIMGAP
 40
0.09
  9
$DIMJUST
 70
     0
  9
$DIMSD1
 70
     0
  9
$DIMSD2
 70
     0
  9
$DIMTOLJ
 70
     1
  9
$DIMTZIN
 70
     0
  9
$DIMALTZ
 70
     0
  9
$DIMALTTZ
 70
     0
  9
$DIMUPT
 70
     0
  9
$DIMDEC
 70
     3
  9
$DIMTDEC
 70
     3
  9
$DIMALTU
 70
     2
  9
$DIMALTTD
 70
     2
  9
$DIMTXSTY
  7
Standard
  9
$DIMAUNIT
 70
     0
  9
$DIMADEC
 70
     0
  9
$DIMALTRND
 40
0.0
  9
$DIMAZIN
 70
     0
  9
$DIMDSEP
 70
    46
  9
$DIMATFIT
 70
     3
  9
$DIMFRAC
 70
     0
  9
$DIMLDRBLK
  1

  9
$DIMLUNIT
 70
     2
  9
$DIMLWD
 70
    -2
  9
$DIMLWE
 70
    -2
  9
$DIMTMOVE
 70
     0
  9
$LUNITS
 70
     2
  9
$LUPREC
 70
     4
  9
$SKETCHINC
 40
0.1
  9
$FILLETRAD
 40
0.05
  9
$AUNITS
 70
     0
  9
$AUPREC
 70
     0
  9
$MENU
  1
.
  9
$ELEVATION
 40
0.0
  9
$PELEVATION
 40
0.0
  9
$THICKNESS
 40
0.0
  9
$LIMCHECK
 70
     0
  9
$CHAMFERA
 40
0.5
  9
$CHAMFERB
 40
0.5
  9
$CHAMFERC
 40
1.0
  9
$CHAMFERD
 40
0.0
  9
$SKPOLY
 70
     0
  9
$TDCREATE
 40
2458302.904946215
  9
$TDUCREATE
 40
2458303.071612882
  9
$TDUPDATE
 40
2458307.942973356
  9
$TDUUPDATE
 40
2458308.109640023
  9
$TDINDWG
 40
0.1367820139
  9
$TDUSRTIMER
 40
0.1367814236
  9
$USRTIMER
 70
     1
  9
$ANGBASE
 50
0.0
  9
$ANGDIR
 70
     0
  9
$PDMODE
 70
     0
  9
$PDSIZE
 40
0.0
  9
$PLINEWID
 40
0.0
  9
$SPLFRAME
 70
     0
  9
$SPLINETYPE
 70
     6
  9
$SPLINESEGS
 70
     8
  9
$HANDSEED
  5
33B
  9
$SURFTAB1
 70
     6
  9
$SURFTAB2
 70
     6
  9
$SURFTYPE
 70
     6
  9
$SURFU
 70
     6
  9
$SURFV
 70
     6
  9
$UCSBASE
  2

  9
$UCSNAME
  2

  9
$UCSORG
 10
0.0
 20
0.0
 30
0.0
  9
$UCSXDIR
 10
1.0
 20
0.0
 30
0.0
  9
$UCSYDIR
 10
0.0
 20
1.0
 30
0.0
  9
$UCSORTHOREF
  2

  9
$UCSORTHOVIEW
 70
     0
  9
$UCSORGTOP
 10
0.0
 20
0.0
 30
0.0
  9
$UCSORGBOTTOM
 10
0.0
 20
0.0
 30
0.0
  9
$UCSORGLEFT
 10
0.0
 20
0.0
 30
0.0
  9
$UCSORGRIGHT
 10
0.0
 20
0.0
 30
0.0
  9
$UCSORGFRONT
 10
0.0
 20
0.0
 30
0.0
  9
$UCSORGBACK
 10
0.0
 20
0.0
 30
0.0
  9
$PUCSBASE
  2

  9
$PUCSNAME
  2

  9
$PUCSORG
 10
0.0
 20
0.0
 30
0.0
  9
$PUCSXDIR
 10
1.0
 20
0.0
 30
0.0
  9
$PUCSYDIR
 10
0.0
 20
1.0
 30
0.0
  9
$PUCSORTHOREF
  2

  9
$PUCSORTHOVIEW
 70
     0
  9
$PUCSORGTOP
 10
0.0
 20
0.0
 30
0.0
  9
$PUCSORGBOTTOM
 10
0.0
 20
0.0
 30
0.0
  9
$PUCSORGLEFT
 10
0.0
 20
0.0
 30
0.0
  9
$PUCSORGRIGHT
 10
0.0
 20
0.0
 30
0.0
  9
$PUCSORGFRONT
 10
0.0
 20
0.0
 30
0.0
  9
$PUCSORGBACK
 10
0.0
 20
0.0
 30
0.0
  9
$USERI1
 70
     0
  9
$USERI2
 70
     0
  9
$USERI3
 70
     0
  9
$USERI4
 70
     0
  9
$USERI5
 70
     0
  9
$USERR1
 40
0.0
  9
$USERR2
 40
0.0
  9
$USERR3
 40
0.0
  9
$USERR4
 40
0.0
  9
$USERR5
 40
0.0
  9
$WORLDVIEW
 70
     1
  9
$SHADEDGE
 70
     3
  9
$SHADEDIF
 70
    70
  9
$TILEMODE
 70
     1
  9
$MAXACTVP
 70
    64
  9
$PINSBASE
 10
0.0
 20
0.0
 30
0.0
  9
$PLIMCHECK
 70
     0
  9
$PEXTMIN
 10
0.0
 20
0.0
 30
0.0
  9
$PEXTMAX
 10
0.0
 20
0.0
 30
0.0
  9
$PLIMMIN
 10
0.0
 20
0.0
  9
$PLIMMAX
 10
12.0
 20
9.0
  9
$UNITMODE
 70
     0
  9
$VISRETAIN
 70
     1
  9
$PLINEGEN
 70
     0
  9
$PSLTSCALE
 70
     1
  9
$TREEDEPTH
 70
  3020
  9
$CMLSTYLE
  2
Standard
  9
$CMLJUST
 70
     0
  9
$CMLSCALE
 40
1.0
  9
$PROXYGRAPHICS
 70
     1
  9
$MEASUREMENT
 70
     0
  9
$CELWEIGHT
370
    -1
  9
$ENDCAPS
280
     0
  9
$JOINSTYLE
280
     0
  9
$LWDISPLAY
290
     0
  9
$INSUNITS
 70
     1
  9
$HYPERLINKBASE
  1

  9
$STYLESHEET
  1

  9
$XEDIT
290
     1
  9
$CEPSNTYPE
380
     0
  9
$PSTYLEMODE
290
     1
  9
$FINGERPRINTGUID
  2
{FDEAD576-A652-11D2-9A35-0060089B3A3F}
  9
$VERSIONGUID
  2
{636D886B-B8B6-4E5A-9AD4-8F8CA351277C}
  9
$EXTNAMES
290
     1
  9
$PSVPSCALE
 40
0.0
  9
$OLESTARTUP
290
     0
  0
ENDSEC
  0
SECTION
  2
CLASSES
  0
CLASS
  1
ACDBDICTIONARYWDFLT
  2
AcDbDictionaryWithDefault
  3
AutoCAD 2000
 90
        0
280
     0
281
     0
  0
CLASS
  1
ACDBPLACEHOLDER
  2
AcDbPlaceHolder
  3
AutoCAD 2000
 90
        0
280
     0
281
     0
  0
CLASS
  1
LAYOUT
  2
AcDbLayout
  3
AutoCAD 2000
 90
        0
280
     0
281
     0
  0
ENDSEC
  0
SECTION
  2
TABLES
  0
TABLE
  2
VPORT
  5
8
330
0
100
AcDbSymbolTable
 70
     2
  0
VPORT
  5
33A
330
8
100
AcDbSymbolTableRecord
100
AcDbViewportTableRecord
  2
*Active
 70
     0
 10
0.0
 20
0.0
 11
1.0
 21
1.0
 12
10.47870122514908
 22
7.014898142244232
 13
0.0
 23
0.0
 14
0.5
 24
0.5
 15
0.5
 25
0.5
 16
0.0
 26
0.0
 36
1.0
 17
0.0
 27
0.0
 37
0.0
 40
14.35444836697286
 41
2.287179487179487
 42
50.0
 43
0.0
 44
0.0
 50
0.0
 51
0.0
 71
     0
 72
   100
 73
     1
 74
     3
 75
     0
 76
     0
 77
     0
 78
     0
281
     0
 65
     1
110
0.0
120
0.0
130
0.0
111
1.0
121
0.0
131
0.0
112
0.0
122
1.0
132
0.0
 79
     0
146
0.0
  0
ENDTAB
  0
TABLE
  2
LTYPE
  5
5
330
0
100
AcDbSymbolTable
 70
     2
  0
LTYPE
  5
14
330
5
100
AcDbSymbolTableRecord
100
AcDbLinetypeTableRecord
  2
ByBlock
 70
     0
  3

 72
    65
 73
     0
 40
0.0
  0
LTYPE
  5
15
330
5
100
AcDbSymbolTableRecord
100
AcDbLinetypeTableRecord
  2
ByLayer
 70
     0
  3

 72
    65
 73
     0
 40
0.0
  0
LTYPE
  5
16
330
5
100
AcDbSymbolTableRecord
100
AcDbLinetypeTableRecord
  2
Continuous
 70
     0
  3
Solid line
 72
    65
 73
     0
 40
0.0
  0
LTYPE
  5
273
330
5
100
AcDbSymbolTableRecord
100
AcDbLinetypeTableRecord
  2
CENTER
 70
     0
  3
Center ____ _ ____ _ ____ _ ____ _ ____ _ ____
 72
    65
 73
     4
 40
2.0
 49
1.25
 74
     0
 49
-0.25
 74
     0
 49
0.25
 74
     0
 49
-0.25
 74
     0
  0
ENDTAB
  0
TABLE
  2
LAYER
  5
2
330
0
100
AcDbSymbolTable
 70
     6
  0
LAYER
  5
10
330
2
100
AcDbSymbolTableRecord
100
AcDbLayerTableRecord
  2
0
 70
     0
 62
     7
  6
Continuous
370
    -3
390
F
  0
LAYER
  5
9D
330
2
100
AcDbSymbolTableRecord
100
AcDbLayerTableRecord
  2
Tube
 70
     0
 62
     5
  6
Continuous
370
    -3
390
F
  0
LAYER
  5
9E
330
2
100
AcDbSymbolTableRecord
100
AcDbLayerTableRecord
  2
MandrelLower
 70
     0
 62
     1
  6
Continuous
370
    -3
390
F
  0
LAYER
  5
9F
330
2
100
AcDbSymbolTableRecord
100
AcDbLayerTableRecord
  2
MandrelUpper
 70
     0
 62
   104
  6
Continuous
370
    -3
390
F
  0
LAYER
  5
1A3
330
2
100
AcDbSymbolTableRecord
100
AcDbLayerTableRecord
  2
Defpoints
 70
     0
 62
     7
  6
Continuous
290
     0
370
    -3
390
F
  0
LAYER
  5
335
330
2
100
AcDbSymbolTableRecord
100
AcDbLayerTableRecord
  2
Washer-Machine
 70
     0
 62
     6
  6
Continuous
370
    -3
390
F
  0
ENDTAB
  0
TABLE
  2
STYLE
  5
3
330
0
100
AcDbSymbolTable
 70
     1
  0
STYLE
  5
11
330
3
100
AcDbSymbolTableRecord
100
AcDbTextStyleTableRecord
  2
Standard
 70
     0
 40
0.0
 41
1.0
 50
0.0
 71
     0
 42
0.2
  3
txt
  4

  0
ENDTAB
  0
TABLE
  2
VIEW
  5
6
330
0
100
AcDbSymbolTable
 70
     0
  0
ENDTAB
  0
TABLE
  2
UCS
  5
7
330
0
100
AcDbSymbolTable
 70
     0
  0
ENDTAB
  0
TABLE
  2
APPID
  5
9
330
0
100
AcDbSymbolTable
 70
     1
  0
APPID
  5
12
330
9
100
AcDbSymbolTableRecord
100
AcDbRegAppTableRecord
  2
ACAD
 70
     0
  0
ENDTAB
  0
TABLE
  2
DIMSTYLE
  5
A
330
0
100
AcDbSymbolTable
 70
     1
100
AcDbDimStyleTable
 71
     1
340
27
  0
DIMSTYLE
105
27
102
{ACAD_REACTORS
330
23A
330
248
330
274
330
282
330
29E
330
2DE
330
2EC
330
30B
102
}
330
A
100
AcDbSymbolTableRecord
100
AcDbDimStyleTableRecord
  2
Standard
 70
     0
271
     3
272
     3
340
11
  0
ENDTAB
  0
TABLE
  2
BLOCK_RECORD
  5
1
330
0
100
AcDbSymbolTable
 70
    16
  0
BLOCK_RECORD
  5
1F
330
1
100
AcDbSymbolTableRecord
100
AcDbBlockTableRecord
  2
*Model_Space
340
22
  0
BLOCK_RECORD
  5
58
330
1
100
AcDbSymbolTableRecord
100
AcDbBlockTableRecord
  2
*Paper_Space
340
59
  0
BLOCK_RECORD
  5
5D
330
1
100
AcDbSymbolTableRecord
100
AcDbBlockTableRecord
  2
*Paper_Space0
340
5E
  0
BLOCK_RECORD
  5
23B
330
1
100
AcDbSymbolTableRecord
100
AcDbBlockTableRecord
  2
*D6
340
0
  0
BLOCK_RECORD
  5
249
330
1
100
AcDbSymbolTableRecord
100
AcDbBlockTableRecord
  2
*D7
340
0
  0
BLOCK_RECORD
  5
275
330
1
100
AcDbSymbolTableRecord
100
AcDbBlockTableRecord
  2
*D8
340
0
  0
BLOCK_RECORD
  5
283
330
1
100
AcDbSymbolTableRecord
100
AcDbBlockTableRecord
  2
*D9
340
0
  0
BLOCK_RECORD
  5
29F
330
1
100
AcDbSymbolTableRecord
100
AcDbBlockTableRecord
  2
*D11
340
0
  0
BLOCK_RECORD
  5
2DF
330
1
100
AcDbSymbolTableRecord
100
AcDbBlockTableRecord
  2
*D12
340
0
  0
BLOCK_RECORD
  5
2ED
330
1
100
AcDbSymbolTableRecord
100
AcDbBlockTableRecord
  2
*D13
340
0
  0
BLOCK_RECORD
  5
30C
330
1
100
AcDbSymbolTableRecord
100
AcDbBlockTableRecord
  2
*D15
340
0
  0
ENDTAB
  0
ENDSEC
  0
SECTION
  2
BLOCKS
  0
BLOCK
  5
20
330
1F
100
AcDbEntity
  8
0
100
AcDbBlockBegin
  2
*Model_Space
 70
     0
 10
0.0
 20
0.0
 30
0.0
  3
*Model_Space
  1

  0
ENDBLK
  5
21
330
1F
100
AcDbEntity
  8
0
100
AcDbBlockEnd
  0
BLOCK
  5
5A
330
58
100
AcDbEntity
 67
     1
  8
0
100
AcDbBlockBegin
  2
*Paper_Space
 70
     0
 10
0.0
 20
0.0
 30
0.0
  3
*Paper_Space
  1

  0
ENDBLK
  5
5B
330
58
100
AcDbEntity
 67
     1
  8
0
100
AcDbBlockEnd
  0
BLOCK
  5
5F
330
5D
100
AcDbEntity
  8
0
100
AcDbBlockBegin
  2
*Paper_Space0
 70
     0
 10
0.0
 20
0.0
 30
0.0
  3
*Paper_Space0
  1

  0
ENDBLK
  5
60
330
5D
100
AcDbEntity
  8
0
100
AcDbBlockEnd
  0
BLOCK
  5
246
330
23B
100
AcDbEntity
  8
0
100
AcDbBlockBegin
  2
*D6
 70
     1
 10
0.0
 20
0.0
 30
0.0
  3
*D6
  1

  0
LINE
  5
2AC
330
23B
100
AcDbEntity
  8
0
 62
     0
370
    -2
100
AcDbLine
 10
8.967180611952333
 20
3.044964916316896
 30
0.0
 11
8.019821278339563
 21
3.044964916316896
 31
0.0
  0
LINE
  5
2AD
330
23B
100
AcDbEntity
  8
0
 62
     0
370
    -2
100
AcDbLine
 10
8.967180611952331
 20
3.982464916316896
 30
0.0
 11
8.019821278339563
 21
3.982464916316896
 31
0.0
  0
LINE
  5
2AE
330
23B
100
AcDbEntity
  8
0
 62
     0
370
    -2
100
AcDbLine
 10
8.199821278339562
 20
3.224964916316896
 30
0.0
 11
8.199821278339562
 21
3.333714916316896
 31
0.0
  0
LINE
  5
2AF
330
23B
100
AcDbEntity
  8
0
 62
     0
370
    -2
100
AcDbLine
 10
8.199821278339562
 20
3.802464916316896
 30
0.0
 11
8.199821278339562
 21
3.693714916316896
 31
0.0
  0
SOLID
  5
2B0
330
23B
100
AcDbEntity
  8
0
 62
     0
100
AcDbTrace
 10
8.169821278339563
 20
3.224964916316896
 30
0.0
 11
8.229821278339562
 21
3.224964916316896
 31
0.0
 12
8.199821278339562
 22
3.044964916316896
 32
0.0
 13
8.199821278339562
 23
3.044964916316896
 33
0.0
  0
SOLID
  5
2B1
330
23B
100
AcDbEntity
  8
0
 62
     0
100
AcDbTrace
 10
8.169821278339563
 20
3.802464916316896
 30
0.0
 11
8.229821278339562
 21
3.802464916316896
 31
0.0
 12
8.199821278339562
 22
3.982464916316896
 32
0.0
 13
8.199821278339562
 23
3.982464916316896
 33
0.0
  0
MTEXT
  5
2B2
330
23B
100
AcDbEntity
  8
0
 62
     0
100
AcDbMText
 10
8.199821278339562
 20
3.513714916316897
 30
0.0
 40
0.18
 41
0.0
 71
     5
 72
     1
  1
\A1;0.938
 73
     1
 44
1.0
  0
POINT
  5
2B3
330
23B
100
AcDbEntity
  8
Defpoints
 62
     0
100
AcDbPoint
 10
9.029680611952333
 20
3.044964916316895
 30
0.0
  0
POINT
  5
2B4
330
23B
100
AcDbEntity
  8
Defpoints
 62
     0
100
AcDbPoint
 10
9.029680611952331
 20
3.982464916316896
 30
0.0
  0
POINT
  5
2B5
330
23B
100
AcDbEntity
  8
Defpoints
 62
     0
100
AcDbPoint
 10
8.199821278339562
 20
3.982464916316896
 30
0.0
  0
ENDBLK
  5
247
330
23B
100
AcDbEntity
  8
0
100
AcDbBlockEnd
  0
BLOCK
  5
254
330
249
100
AcDbEntity
  8
0
100
AcDbBlockBegin
  2
*D7
 70
     1
 10
0.0
 20
0.0
 30
0.0
  3
*D7
  1

  0
LINE
  5
2B6
330
249
100
AcDbEntity
  8
0
 62
     0
370
    -2
100
AcDbLine
 10
9.029680611952334
 20
4.044964916316896
 30
0.0
 11
9.029680611952334
 21
4.743195961772833
 31
0.0
  0
LINE
  5
2B7
330
249
100
AcDbEntity
  8
0
 62
     0
370
    -2
100
AcDbLine
 10
9.129680611952332
 20
4.044964916316896
 30
0.0
 11
9.129680611952332
 21
4.743195961772833
 31
0.0
  0
LINE
  5
2B8
330
249
100
AcDbEntity
  8
0
 62
     0
370
    -2
100
AcDbLine
 10
8.849680611952335
 20
4.563195961772834
 30
0.0
 11
8.669680611952335
 21
4.563195961772834
 31
0.0
  0
LINE
  5
2B9
330
249
100
AcDbEntity
  8
0
 62
     0
370
    -2
100
AcDbLine
 10
9.309680611952332
 20
4.563195961772834
 30
0.0
 11
9.489680611952332
 21
4.563195961772834
 31
0.0
  0
SOLID
  5
2BA
330
249
100
AcDbEntity
  8
0
 62
     0
100
AcDbTrace
 10
8.849680611952335
 20
4.593195961772834
 30
0.0
 11
8.849680611952335
 21
4.533195961772833
 31
0.0
 12
9.029680611952334
 22
4.563195961772834
 32
0.0
 13
9.029680611952334
 23
4.563195961772834
 33
0.0
  0
SOLID
  5
2BB
330
249
100
AcDbEntity
  8
0
 62
     0
100
AcDbTrace
 10
9.309680611952332
 20
4.593195961772834
 30
0.0
 11
9.309680611952332
 21
4.533195961772833
 31
0.0
 12
9.129680611952332
 22
4.563195961772834
 32
0.0
 13
9.129680611952332
 23
4.563195961772834
 33
0.0
  0
MTEXT
  5
2BC
330
249
100
AcDbEntity
  8
0
 62
     0
100
AcDbMText
 10
9.864680611952332
 20
4.563195961772834
 30
0.0
 40
0.18
 41
0.0
 71
     5
 72
     1
  1
\A1;0.100
 73
     1
 44
1.0
  0
POINT
  5
2BD
330
249
100
AcDbEntity
  8
Defpoints
 62
     0
100
AcDbPoint
 10
9.029680611952334
 20
3.982464916316896
 30
0.0
  0
POINT
  5
2BE
330
249
100
AcDbEntity
  8
Defpoints
 62
     0
100
AcDbPoint
 10
9.129680611952332
 20
3.982464916316896
 30
0.0
  0
POINT
  5
2BF
330
249
100
AcDbEntity
  8
Defpoints
 62
     0
100
AcDbPoint
 10
9.129680611952332
 20
4.563195961772834
 30
0.0
  0
ENDBLK
  5
255
330
249
100
AcDbEntity
  8
0
100
AcDbBlockEnd
  0
BLOCK
  5
280
330
275
100
AcDbEntity
  8
0
100
AcDbBlockBegin
  2
*D8
 70
     1
 10
0.0
 20
0.0
 30
0.0
  3
*D8
  1

  0
LINE
  5
2C0
330
275
100
AcDbEntity
  8
0
 62
     0
370
    -2
100
AcDbLine
 10
5.480255485189736
 20
10.97835076052797
 30
0.0
 11
6.15165986885144
 21
10.97835076052797
 31
0.0
  0
LINE
  5
2C1
330
275
100
AcDbEntity
  8
0
 62
     0
370
    -2
100
AcDbLine
 10
5.680255485189737
 20
9.478374826118214
 30
0.0
 11
6.151659868851439
 21
9.478374826118214
 31
0.0
  0
LINE
  5
2C2
330
275
100
AcDbEntity
  8
0
 62
     0
370
    -2
100
AcDbLine
 10
5.97165986885144
 20
10.79835076052797
 30
0.0
 11
5.97165986885144
 21
10.40836279332309
 31
0.0
  0
LINE
  5
2C3
330
275
100
AcDbEntity
  8
0
 62
     0
370
    -2
100
AcDbLine
 10
5.971659868851439
 20
9.658374826118214
 30
0.0
 11
5.97165986885144
 21
10.04836279332309
 31
0.0
  0
SOLID
  5
2C4
330
275
100
AcDbEntity
  8
0
 62
     0
100
AcDbTrace
 10
5.94165986885144
 20
10.79835076052797
 30
0.0
 11
6.00165986885144
 21
10.79835076052797
 31
0.0
 12
5.97165986885144
 22
10.97835076052797
 32
0.0
 13
5.97165986885144
 23
10.97835076052797
 33
0.0
  0
SOLID
  5
2C5
330
275
100
AcDbEntity
  8
0
 62
     0
100
AcDbTrace
 10
5.941659868851439
 20
9.658374826118214
 30
0.0
 11
6.001659868851439
 21
9.658374826118214
 31
0.0
 12
5.971659868851439
 22
9.478374826118214
 32
0.0
 13
5.971659868851439
 23
9.478374826118214
 33
0.0
  0
MTEXT
  5
2C6
330
275
100
AcDbEntity
  8
0
 62
     0
100
AcDbMText
 10
5.971659868851438
 20
10.22836279332309
 30
0.0
 40
0.18
 41
0.0
 71
     5
 72
     1
  1
\A1;1.500
 73
     1
 44
1.0
  0
POINT
  5
2C7
330
275
100
AcDbEntity
  8
Defpoints
 62
     0
100
AcDbPoint
 10
5.417755485189736
 20
10.97835076052797
 30
0.0
  0
POINT
  5
2C8
330
275
100
AcDbEntity
  8
Defpoints
 62
     0
100
AcDbPoint
 10
5.617755485189737
 20
9.478374826118214
 30
0.0
  0
POINT
  5
2C9
330
275
100
AcDbEntity
  8
Defpoints
 62
     0
100
AcDbPoint
 10
5.971659868851439
 20
9.478374826118214
 30
0.0
  0
ENDBLK
  5
281
330
275
100
AcDbEntity
  8
0
100
AcDbBlockEnd
  0
BLOCK
  5
28E
330
283
100
AcDbEntity
  8
0
100
AcDbBlockBegin
  2
*D9
 70
     1
 10
0.0
 20
0.0
 30
0.0
  3
*D9
  1

  0
LINE
  5
2CA
330
283
100
AcDbEntity
  8
0
 62
     0
370
    -2
100
AcDbLine
 10
5.480255485189736
 20
10.97835076052797
 30
0.0
 11
7.0430878163737
 21
10.97835076052797
 31
0.0
  0
LINE
  5
2CB
330
283
100
AcDbEntity
  8
0
 62
     0
370
    -2
100
AcDbLine
 10
5.680255485189736
 20
8.413374826118214
 30
0.0
 11
7.043087816373699
 21
8.413374826118214
 31
0.0
  0
LINE
  5
2CC
330
283
100
AcDbEntity
  8
0
 62
     0
370
    -2
100
AcDbLine
 10
6.8630878163737
 20
10.79835076052797
 30
0.0
 11
6.863087816373699
 21
9.875862793323092
 31
0.0
  0
LINE
  5
2CD
330
283
100
AcDbEntity
  8
0
 62
     0
370
    -2
100
AcDbLine
 10
6.863087816373699
 20
8.593374826118214
 30
0.0
 11
6.863087816373699
 21
9.515862793323092
 31
0.0
  0
SOLID
  5
2CE
330
283
100
AcDbEntity
  8
0
 62
     0
100
AcDbTrace
 10
6.8330878163737
 20
10.79835076052797
 30
0.0
 11
6.8930878163737
 21
10.79835076052797
 31
0.0
 12
6.8630878163737
 22
10.97835076052797
 32
0.0
 13
6.8630878163737
 23
10.97835076052797
 33
0.0
  0
SOLID
  5
2CF
330
283
100
AcDbEntity
  8
0
 62
     0
100
AcDbTrace
 10
6.833087816373699
 20
8.593374826118214
 30
0.0
 11
6.893087816373699
 21
8.593374826118214
 31
0.0
 12
6.863087816373699
 22
8.413374826118214
 32
0.0
 13
6.863087816373699
 23
8.413374826118214
 33
0.0
  0
MTEXT
  5
2D0
330
283
100
AcDbEntity
  8
0
 62
     0
100
AcDbMText
 10
6.863087816373698
 20
9.695862793323094
 30
0.0
 40
0.18
 41
0.0
 71
     5
 72
     1
  1
\A1;2.565
 73
     1
 44
1.0
  0
POINT
  5
2D1
330
283
100
AcDbEntity
  8
Defpoints
 62
     0
100
AcDbPoint
 10
5.417755485189736
 20
10.97835076052797
 30
0.0
  0
POINT
  5
2D2
330
283
100
AcDbEntity
  8
Defpoints
 62
     0
100
AcDbPoint
 10
5.617755485189736
 20
8.413374826118214
 30
0.0
  0
POINT
  5
2D3
330
283
100
AcDbEntity
  8
Defpoints
 62
     0
100
AcDbPoint
 10
6.863087816373699
 20
8.413374826118214
 30
0.0
  0
ENDBLK
  5
28F
330
283
100
AcDbEntity
  8
0
100
AcDbBlockEnd
  0
BLOCK
  5
2AA
330
29F
100
AcDbEntity
  8
0
100
AcDbBlockBegin
  2
*D11
 70
     1
 10
0.0
 20
0.0
 30
0.0
  3
*D11
  1

  0
LINE
  5
2D4
330
29F
100
AcDbEntity
  8
0
 62
     0
370
    -2
100
AcDbLine
 10
1.417755485189736
 20
11.04085076052797
 30
0.0
 11
1.417755485189736
 21
11.71346695699736
 31
0.0
  0
LINE
  5
2D5
330
29F
100
AcDbEntity
  8
0
 62
     0
370
    -2
100
AcDbLine
 10
5.417755485189736
 20
11.04085076052797
 30
0.0
 11
5.417755485189736
 21
11.71346695699736
 31
0.0
  0
LINE
  5
2D6
330
29F
100
AcDbEntity
  8
0
 62
     0
370
    -2
100
AcDbLine
 10
1.597755485189736
 20
11.53346695699736
 30
0.0
 11
3.012755485189737
 21
11.53346695699736
 31
0.0
  0
LINE
  5
2D7
330
29F
100
AcDbEntity
  8
0
 62
     0
370
    -2
100
AcDbLine
 10
5.237755485189737
 20
11.53346695699736
 30
0.0
 11
3.822755485189736
 21
11.53346695699736
 31
0.0
  0
SOLID
  5
2D8
330
29F
100
AcDbEntity
  8
0
 62
     0
100
AcDbTrace
 10
1.597755485189736
 20
11.56346695699736
 30
0.0
 11
1.597755485189736
 21
11.50346695699736
 31
0.0
 12
1.417755485189736
 22
11.53346695699736
 32
0.0
 13
1.417755485189736
 23
11.53346695699736
 33
0.0
  0
SOLID
  5
2D9
330
29F
100
AcDbEntity
  8
0
 62
     0
100
AcDbTrace
 10
5.237755485189737
 20
11.56346695699736
 30
0.0
 11
5.237755485189737
 21
11.50346695699736
 31
0.0
 12
5.417755485189736
 22
11.53346695699736
 32
0.0
 13
5.417755485189736
 23
11.53346695699736
 33
0.0
  0
MTEXT
  5
2DA
330
29F
100
AcDbEntity
  8
0
 62
     0
100
AcDbMText
 10
3.417755485189736
 20
11.53346695699736
 30
0.0
 40
0.18
 41
0.0
 71
     5
 72
     1
  1
\A1;4.000
 73
     1
 44
1.0
  0
POINT
  5
2DB
330
29F
100
AcDbEntity
  8
Defpoints
 62
     0
100
AcDbPoint
 10
1.417755485189736
 20
10.97835076052797
 30
0.0
  0
POINT
  5
2DC
330
29F
100
AcDbEntity
  8
Defpoints
 62
     0
100
AcDbPoint
 10
5.417755485189736
 20
10.97835076052797
 30
0.0
  0
POINT
  5
2DD
330
29F
100
AcDbEntity
  8
Defpoints
 62
     0
100
AcDbPoint
 10
5.417755485189736
 20
11.53346695699736
 30
0.0
  0
ENDBLK
  5
2AB
330
29F
100
AcDbEntity
  8
0
100
AcDbBlockEnd
  0
BLOCK
  5
2EA
330
2DF
100
AcDbEntity
  8
0
100
AcDbBlockBegin
  2
*D12
 70
     1
 10
0.0
 20
0.0
 30
0.0
  3
*D12
  1

  0
LINE
  5
2E0
330
2DF
100
AcDbEntity
  8
0
 62
     0
370
    -2
100
AcDbLine
 10
1.355255485189736
 20
10.97835076052797
 30
0.0
 11
0.6018398747705192
 21
10.97835076052797
 31
0.0
  0
LINE
  5
2E1
330
2DF
100
AcDbEntity
  8
0
 62
     0
370
    -2
100
AcDbLine
 10
1.355255485189736
 20
9.959388839256506
 30
0.0
 11
0.601839874770519
 21
9.959388839256506
 31
0.0
  0
LINE
  5
2E2
330
2DF
100
AcDbEntity
  8
0
 62
     0
370
    -2
100
AcDbLine
 10
0.7818398747705191
 20
10.79835076052797
 30
0.0
 11
0.781839874770519
 21
10.64886979989223
 31
0.0
  0
LINE
  5
2E3
330
2DF
100
AcDbEntity
  8
0
 62
     0
370
    -2
100
AcDbLine
 10
0.7818398747705189
 20
10.1393888392565
 30
0.0
 11
0.781839874770519
 21
10.28886979989223
 31
0.0
  0
SOLID
  5
2E4
330
2DF
100
AcDbEntity
  8
0
 62
     0
100
AcDbTrace
 10
0.7518398747705191
 20
10.79835076052797
 30
0.0
 11
0.8118398747705191
 21
10.79835076052797
 31
0.0
 12
0.7818398747705191
 22
10.97835076052797
 32
0.0
 13
0.7818398747705191
 23
10.97835076052797
 33
0.0
  0
SOLID
  5
2E5
330
2DF
100
AcDbEntity
  8
0
 62
     0
100
AcDbTrace
 10
0.7518398747705188
 20
10.1393888392565
 30
0.0
 11
0.8118398747705189
 21
10.1393888392565
 31
0.0
 12
0.7818398747705189
 22
9.959388839256506
 32
0.0
 13
0.7818398747705189
 23
9.959388839256506
 33
0.0
  0
MTEXT
  5
2E6
330
2DF
100
AcDbEntity
  8
0
 62
     0
100
AcDbMText
 10
0.7818398747705173
 20
10.46886979989223
 30
0.0
 40
0.18
 41
0.0
 71
     5
 72
     1
  1
\A1;1.019
 73
     1
 44
1.0
  0
POINT
  5
2E7
330
2DF
100
AcDbEntity
  8
Defpoints
 62
     0
100
AcDbPoint
 10
1.417755485189736
 20
10.97835076052797
 30
0.0
  0
POINT
  5
2E8
330
2DF
100
AcDbEntity
  8
Defpoints
 62
     0
100
AcDbPoint
 10
1.417755485189736
 20
9.959388839256506
 30
0.0
  0
POINT
  5
2E9
330
2DF
100
AcDbEntity
  8
Defpoints
 62
     0
100
AcDbPoint
 10
0.7818398747705189
 20
9.959388839256506
 30
0.0
  0
ENDBLK
  5
2EB
330
2DF
100
AcDbEntity
  8
0
100
AcDbBlockEnd
  0
BLOCK
  5
2F8
330
2ED
100
AcDbEntity
  8
0
100
AcDbBlockBegin
  2
*D13
 70
     1
 10
0.0
 20
0.0
 30
0.0
  3
*D13
  1

  0
LINE
  5
2EE
330
2ED
100
AcDbEntity
  8
0
 62
     0
370
    -2
100
AcDbLine
 10
1.355255485189736
 20
10.97835076052797
 30
0.0
 11
-0.0453612065759968
 21
10.97835076052797
 31
0.0
  0
LINE
  5
2EF
330
2ED
100
AcDbEntity
  8
0
 62
     0
370
    -2
100
AcDbLine
 10
1.355255485189736
 20
9.161082334588336
 30
0.0
 11
-0.0453612065759974
 21
9.161082334588336
 31
0.0
  0
LINE
  5
2F0
330
2ED
100
AcDbEntity
  8
0
 62
     0
370
    -2
100
AcDbLine
 10
0.134638793424003
 20
10.79835076052797
 30
0.0
 11
0.1346387934240029
 21
10.24971654755815
 31
0.0
  0
LINE
  5
2F1
330
2ED
100
AcDbEntity
  8
0
 62
     0
370
    -2
100
AcDbLine
 10
0.1346387934240027
 20
9.341082334588335
 30
0.0
 11
0.1346387934240028
 21
9.889716547558155
 31
0.0
  0
SOLID
  5
2F2
330
2ED
100
AcDbEntity
  8
0
 62
     0
100
AcDbTrace
 10
0.104638793424003
 20
10.79835076052797
 30
0.0
 11
0.164638793424003
 21
10.79835076052797
 31
0.0
 12
0.1346387934240031
 22
10.97835076052797
 32
0.0
 13
0.1346387934240031
 23
10.97835076052797
 33
0.0
  0
SOLID
  5
2F3
330
2ED
100
AcDbEntity
  8
0
 62
     0
100
AcDbTrace
 10
0.1046387934240027
 20
9.341082334588335
 30
0.0
 11
0.1646387934240027
 21
9.341082334588335
 31
0.0
 12
0.1346387934240027
 22
9.161082334588336
 32
0.0
 13
0.1346387934240027
 23
9.161082334588336
 33
0.0
  0
MTEXT
  5
2F4
330
2ED
100
AcDbEntity
  8
0
 62
     0
100
AcDbMText
 10
0.1346387934240012
 20
10.06971654755815
 30
0.0
 40
0.18
 41
0.0
 71
     5
 72
     1
  1
\A1;1.817
 73
     1
 44
1.0
  0
POINT
  5
2F5
330
2ED
100
AcDbEntity
  8
Defpoints
 62
     0
100
AcDbPoint
 10
1.417755485189736
 20
10.97835076052797
 30
0.0
  0
POINT
  5
2F6
330
2ED
100
AcDbEntity
  8
Defpoints
 62
     0
100
AcDbPoint
 10
1.417755485189736
 20
9.161082334588336
 30
0.0
  0
POINT
  5
2F7
330
2ED
100
AcDbEntity
  8
Defpoints
 62
     0
100
AcDbPoint
 10
0.1346387934240027
 20
9.161082334588336
 30
0.0
  0
ENDBLK
  5
2F9
330
2ED
100
AcDbEntity
  8
0
100
AcDbBlockEnd
  0
BLOCK
  5
317
330
30C
100
AcDbEntity
  8
0
100
AcDbBlockBegin
  2
*D15
 70
     1
 10
0.0
 20
0.0
 30
0.0
  3
*D15
  1

  0
LINE
  5
323
330
30C
100
AcDbEntity
  8
0
 62
     0
370
    -2
100
AcDbLine
 10
1.355255485189736
 20
10.97835076052797
 30
0.0
 11
-0.6803509446137208
 21
10.97835076052797
 31
0.0
  0
LINE
  5
324
330
30C
100
AcDbEntity
  8
0
 62
     0
370
    -2
100
AcDbLine
 10
1.355255485189735
 20
5.978753460272755
 30
0.0
 11
-0.6803509446137217
 21
5.978753460272755
 31
0.0
  0
LINE
  5
325
330
30C
100
AcDbEntity
  8
0
 62
     0
370
    -2
100
AcDbLine
 10
-0.5003509446137207
 20
10.79835076052797
 30
0.0
 11
-0.5003509446137212
 21
8.658552110400362
 31
0.0
  0
LINE
  5
326
330
30C
100
AcDbEntity
  8
0
 62
     0
370
    -2
100
AcDbLine
 10
-0.5003509446137218
 20
6.158753460272754
 30
0.0
 11
-0.5003509446137212
 21
8.298552110400363
 31
0.0
  0
SOLID
  5
327
330
30C
100
AcDbEntity
  8
0
 62
     0
100
AcDbTrace
 10
-0.5303509446137208
 20
10.79835076052797
 30
0.0
 11
-0.4703509446137207
 21
10.79835076052797
 31
0.0
 12
-0.5003509446137207
 22
10.97835076052797
 32
0.0
 13
-0.5003509446137207
 23
10.97835076052797
 33
0.0
  0
SOLID
  5
328
330
30C
100
AcDbEntity
  8
0
 62
     0
100
AcDbTrace
 10
-0.5303509446137218
 20
6.158753460272754
 30
0.0
 11
-0.4703509446137217
 21
6.158753460272754
 31
0.0
 12
-0.5003509446137218
 22
5.978753460272755
 32
0.0
 13
-0.5003509446137218
 23
5.978753460272755
 33
0.0
  0
MTEXT
  5
329
330
30C
100
AcDbEntity
  8
0
 62
     0
100
AcDbMText
 10
-0.5003509446137226
 20
8.478552110400363
 30
0.0
 40
0.18
 41
0.0
 71
     5
 72
     1
  1
\A1;5.000
 73
     1
 44
1.0
  0
POINT
  5
32A
330
30C
100
AcDbEntity
  8
Defpoints
 62
     0
100
AcDbPoint
 10
1.417755485189736
 20
10.97835076052797
 30
0.0
  0
POINT
  5
32B
330
30C
100
AcDbEntity
  8
Defpoints
 62
     0
100
AcDbPoint
 10
1.417755485189735
 20
5.978753460272755
 30
0.0
  0
POINT
  5
32C
330
30C
100
AcDbEntity
  8
Defpoints
 62
     0
100
AcDbPoint
 10
-0.5003509446137218
 20
5.978753460272755
 30
0.0
  0
ENDBLK
  5
318
330
30C
100
AcDbEntity
  8
0
100
AcDbBlockEnd
  0
ENDSEC
  0
SECTION
  2
ENTITIES
  0
LINE
  5
65
330
1F
100
AcDbEntity
  8
MandrelLower
100
AcDbLine
 10
8.542493111952328
 20
8.100874826118214
 30
0.0
 11
14.54249311195233
 21
8.100874826118214
 31
0.0
  0
LINE
  5
66
330
1F
100
AcDbEntity
  8
MandrelLower
100
AcDbLine
 10
8.542493111952328
 20
8.725874826118214
 30
0.0
 11
14.54249311195233
 21
8.725874826118214
 31
0.0
  0
LINE
  5
67
330
1F
100
AcDbEntity
  8
MandrelLower
100
AcDbLine
 10
8.54249311195233
 20
8.725874826118214
 30
0.0
 11
8.54249311195233
 21
8.100874826118214
 31
0.0
  0
LINE
  5
69
330
1F
100
AcDbEntity
  8
MandrelLower
100
AcDbLine
 10
8.54249311195233
 20
8.413374826118214
 30
0.0
 11
8.15186811195233
 21
8.413374826118214
 31
0.0
  0
LINE
  5
6A
330
1F
100
AcDbEntity
  8
MandrelLower
100
AcDbLine
 10
8.54249311195233
 20
8.882124826118214
 30
0.0
 11
8.15186811195233
 21
8.882124826118214
 31
0.0
  0
LINE
  5
6B
330
1F
100
AcDbEntity
  8
MandrelLower
100
AcDbLine
 10
8.54249311195233
 20
7.944624826118214
 30
0.0
 11
8.15186811195233
 21
7.944624826118214
 31
0.0
  0
LINE
  5
6C
330
1F
100
AcDbEntity
  8
MandrelLower
100
AcDbLine
 10
8.54249311195233
 20
7.944624826118214
 30
0.0
 11
8.54249311195233
 21
8.882124826118214
 31
0.0
  0
LINE
  5
6D
330
1F
100
AcDbEntity
  8
MandrelLower
100
AcDbLine
 10
8.15186811195233
 20
8.882124826118214
 30
0.0
 11
8.15186811195233
 21
7.944624826118214
 31
0.0
  0
LINE
  5
6E
330
1F
100
AcDbEntity
  8
MandrelLower
100
AcDbLine
 10
8.54249311195233
 20
7.725874826118214
 30
0.0
 11
8.54249311195233
 21
9.100874826118214
 31
0.0
  0
LINE
  5
6F
330
1F
100
AcDbEntity
  8
MandrelLower
100
AcDbLine
 10
8.974993111952331
 20
7.725874826118214
 30
0.0
 11
8.974993111952331
 21
9.100874826118214
 31
0.0
  0
LINE
  5
70
330
1F
100
AcDbEntity
  8
MandrelLower
100
AcDbLine
 10
8.974993111952331
 20
9.100874826118214
 30
0.0
 11
8.54249311195233
 21
9.100874826118214
 31
0.0
  0
LINE
  5
71
330
1F
100
AcDbEntity
  8
MandrelLower
100
AcDbLine
 10
8.974993111952331
 20
7.725874826118214
 30
0.0
 11
8.54249311195233
 21
7.725874826118214
 31
0.0
  0
LINE
  5
72
330
1F
100
AcDbEntity
  8
MandrelLower
100
AcDbLine
 10
9.474993111952329
 20
7.725874826118214
 30
0.0
 11
9.474993111952329
 21
9.100874826118214
 31
0.0
  0
LINE
  5
73
330
1F
100
AcDbEntity
  8
MandrelLower
100
AcDbLine
 10
9.90749311195233
 20
7.725874826118214
 30
0.0
 11
9.90749311195233
 21
9.100874826118214
 31
0.0
  0
LINE
  5
74
330
1F
100
AcDbEntity
  8
MandrelLower
100
AcDbLine
 10
9.90749311195233
 20
9.100874826118214
 30
0.0
 11
9.474993111952329
 21
9.100874826118214
 31
0.0
  0
LINE
  5
75
330
1F
100
AcDbEntity
  8
MandrelLower
100
AcDbLine
 10
9.90749311195233
 20
7.725874826118214
 30
0.0
 11
9.474993111952329
 21
7.725874826118214
 31
0.0
  0
LINE
  5
76
330
1F
100
AcDbEntity
  8
MandrelLower
100
AcDbLine
 10
9.474993111952331
 20
7.725874826118214
 30
0.0
 11
9.474993111952329
 21
9.100874826118214
 31
0.0
  0
LINE
  5
78
330
1F
100
AcDbEntity
  8
MandrelUpper
100
AcDbLine
 10
9.324993111952331
 20
9.790874826118212
 30
0.0
 11
15.42030561195233
 21
9.79087482611821
 31
0.0
  0
LINE
  5
79
330
1F
100
AcDbEntity
  8
MandrelUpper
100
AcDbLine
 10
9.029680611952329
 20
9.165874826118214
 30
0.0
 11
9.124993111952331
 21
9.165874826118212
 31
0.0
  0
LINE
  5
7A
330
1F
100
AcDbEntity
  8
MandrelUpper
100
AcDbLine
 10
9.029680611952329
 20
9.790874826118212
 30
0.0
 11
9.029680611952331
 21
9.165874826118214
 31
0.0
  0
LINE
  5
7B
330
1F
100
AcDbEntity
  8
MandrelUpper
100
AcDbLine
 10
9.27499311195233
 20
9.009624826118216
 30
0.0
 11
9.17499311195233
 21
9.009624826118216
 31
0.0
  0
LINE
  5
7D
330
1F
100
AcDbEntity
  8
MandrelUpper
100
AcDbLine
 10
9.27499311195233
 20
9.947124826118216
 30
0.0
 11
9.174993111952332
 21
9.947124826118216
 31
0.0
  0
LINE
  5
7F
330
1F
100
AcDbEntity
  8
MandrelUpper
100
AcDbLine
 10
9.420305611952331
 20
9.165874826118214
 30
0.0
 11
9.420305611952329
 21
9.790874826118212
 31
0.0
  0
LINE
  5
83
330
1F
100
AcDbEntity
  8
MandrelUpper
100
AcDbLine
 10
9.17499311195233
 20
9.115874826118211
 30
0.0
 11
9.174993111952332
 21
9.009624826118216
 31
0.0
  0
LINE
  5
84
330
1F
100
AcDbEntity
  8
MandrelUpper
100
AcDbLine
 10
9.27499311195233
 20
9.947124826118216
 30
0.0
 11
9.27499311195233
 21
9.840874826118213
 31
0.0
  0
ARC
  5
86
330
1F
100
AcDbEntity
  8
MandrelUpper
100
AcDbCircle
 10
9.324993111952331
 20
9.840874826118213
 30
0.0
 40
0.05
100
AcDbArc
 50
180.0
 51
270.0
  0
ARC
  5
87
330
1F
100
AcDbEntity
  8
MandrelUpper
100
AcDbCircle
 10
9.124993111952331
 20
9.115874826118211
 30
0.0
 40
0.05
100
AcDbArc
 50
0.0
 51
90.0
  0
LINE
  5
88
330
1F
100
AcDbEntity
  8
MandrelUpper
100
AcDbLine
 10
9.174993111952328
 20
9.840874826118215
 30
0.0
 11
9.174993111952328
 21
9.947124826118216
 31
0.0
  0
LINE
  5
89
330
1F
100
AcDbEntity
  8
MandrelUpper
100
AcDbLine
 10
9.124993111952329
 20
9.790874826118214
 30
0.0
 11
9.029680611952331
 21
9.790874826118212
 31
0.0
  0
LINE
  5
8A
330
1F
100
AcDbEntity
  8
MandrelUpper
100
AcDbLine
 10
9.324993111952331
 20
9.165874826118214
 30
0.0
 11
9.420305611952331
 21
9.165874826118214
 31
0.0
  0
LINE
  5
8B
330
1F
100
AcDbEntity
  8
MandrelUpper
100
AcDbLine
 10
9.27499311195233
 20
9.009624826118216
 30
0.0
 11
9.27499311195233
 21
9.115874826118213
 31
0.0
  0
ARC
  5
8C
330
1F
100
AcDbEntity
  8
MandrelUpper
100
AcDbCircle
 10
9.124993111952329
 20
9.840874826118215
 30
0.0
 40
0.05
100
AcDbArc
 50
270.0
 51
0.0000000000000509
  0
ARC
  5
8D
330
1F
100
AcDbEntity
  8
MandrelUpper
100
AcDbCircle
 10
9.324993111952331
 20
9.115874826118213
 30
0.0
 40
0.05
100
AcDbArc
 50
90.0
 51
180.0
  0
LINE
  5
8E
330
1F
100
AcDbEntity
  8
MandrelUpper
100
AcDbLine
 10
9.27499311195233
 20
9.115874826118213
 30
0.0
 11
9.274993111952332
 21
9.840874826118213
 31
0.0
  0
LINE
  5
8F
330
1F
100
AcDbEntity
  8
MandrelUpper
100
AcDbLine
 10
9.174993111952328
 20
9.840874826118215
 30
0.0
 11
9.174993111952328
 21
9.115874826118211
 31
0.0
  0
LINE
  5
90
330
1F
100
AcDbEntity
  8
MandrelUpper
100
AcDbLine
 10
9.124993111952331
 20
9.165874826118212
 30
0.0
 11
9.124993111952321
 21
9.790874826118214
 31
0.0
  0
LINE
  5
91
330
1F
100
AcDbEntity
  8
MandrelUpper
100
AcDbLine
 10
9.324993111952331
 20
9.790874826118212
 30
0.0
 11
9.324993111952331
 21
9.165874826118214
 31
0.0
  0
LINE
  5
92
330
1F
100
AcDbEntity
  8
MandrelUpper
100
AcDbLine
 10
9.420305611952331
 20
9.165874826118214
 30
0.0
 11
15.42030561195233
 21
9.165874826118216
 31
0.0
  0
LINE
  5
93
330
1F
100
AcDbEntity
  8
MandrelUpper
100
AcDbLine
 10
10.4928660073986
 20
8.790874826118212
 30
0.0
 11
10.4928660073986
 21
10.16587482611821
 31
0.0
  0
LINE
  5
94
330
1F
100
AcDbEntity
  8
MandrelUpper
100
AcDbLine
 10
10.9253660073986
 20
8.790874826118212
 30
0.0
 11
10.9253660073986
 21
10.16587482611821
 31
0.0
  0
LINE
  5
95
330
1F
100
AcDbEntity
  8
MandrelUpper
100
AcDbLine
 10
10.4928660073986
 20
8.790874826118212
 30
0.0
 11
10.4928660073986
 21
10.16587482611821
 31
0.0
  0
LINE
  5
96
330
1F
100
AcDbEntity
  8
MandrelUpper
100
AcDbLine
 10
10.9253660073986
 20
8.790874826118212
 30
0.0
 11
10.4928660073986
 21
8.790874826118212
 31
0.0
  0
LINE
  5
97
330
1F
100
AcDbEntity
  8
MandrelUpper
100
AcDbLine
 10
10.9253660073986
 20
10.16587482611821
 30
0.0
 11
10.4928660073986
 21
10.16587482611821
 31
0.0
  0
LINE
  5
98
330
1F
100
AcDbEntity
  8
Tube
100
AcDbLine
 10
8.121794413017251
 20
9.100874826118214
 30
0.0
 11
9.90749311195233
 21
9.100874826118214
 31
0.0
  0
LINE
  5
99
330
1F
100
AcDbEntity
  8
Tube
100
AcDbLine
 10
8.121794413017251
 20
9.165874826118214
 30
0.0
 11
9.90749311195233
 21
9.165874826118214
 31
0.0
  0
LINE
  5
9A
330
1F
100
AcDbEntity
  8
Tube
100
AcDbLine
 10
8.121794413017251
 20
10.60087482611821
 30
0.0
 11
9.90749311195233
 21
10.60087482611821
 31
0.0
  0
LINE
  5
9B
330
1F
100
AcDbEntity
  8
Tube
100
AcDbLine
 10
8.121794413017251
 20
10.53587482611821
 30
0.0
 11
9.90749311195233
 21
10.53587482611821
 31
0.0
  0
LINE
  5
9C
330
1F
100
AcDbEntity
  8
Tube
100
AcDbLine
 10
9.90749311195233
 20
10.60087482611821
 30
0.0
 11
9.90749311195233
 21
9.100874826118214
 31
0.0
  0
LINE
  5
A0
330
1F
100
AcDbEntity
  8
MandrelLower
100
AcDbLine
 10
9.90749311195233
 20
8.825874826118214
 30
0.0
 11
10.03411600739861
 21
8.825874826118214
 31
0.0
  0
LINE
  5
A1
330
1F
100
AcDbEntity
  8
MandrelLower
100
AcDbLine
 10
9.90749311195233
 20
8.000874826118215
 30
0.0
 11
10.03411600739861
 21
8.000874826118215
 31
0.0
  0
LINE
  5
A2
330
1F
100
AcDbEntity
  8
0
100
AcDbLine
 10
10.0341160073986
 20
10.97834325205785
 30
0.0
 11
10.0341160073986
 21
6.07394325205785
 31
0.0
  0
LINE
  5
A3
330
1F
100
AcDbEntity
  8
0
100
AcDbLine
 10
14.0341160073986
 20
10.97834325205785
 30
0.0
 11
14.0341160073986
 21
6.07394325205785
 31
0.0
  0
LINE
  5
A8
330
1F
100
AcDbEntity
  8
MandrelLower
100
AcDbLine
 10
14.54249311195233
 20
8.725874826118214
 30
0.0
 11
14.54249311195233
 21
8.100874826118214
 31
0.0
  0
LINE
  5
AA
330
1F
100
AcDbEntity
  8
0
100
AcDbLine
 10
14.4247410073986
 20
8.953374826118215
 30
0.0
 11
14.0341160073986
 21
8.953374826118214
 31
0.0
  0
LINE
  5
AB
330
1F
100
AcDbEntity
  8
0
100
AcDbLine
 10
14.4247410073986
 20
7.873374826118215
 30
0.0
 11
14.0341160073986
 21
7.873374826118214
 31
0.0
  0
LINE
  5
AE
330
1F
100
AcDbEntity
  8
0
100
AcDbLine
 10
14.0341160073986
 20
7.873374826118214
 30
0.0
 11
14.0341160073986
 21
8.953374826118214
 31
0.0
  0
LINE
  5
AF
330
1F
100
AcDbEntity
  8
0
100
AcDbLine
 10
14.4247410073986
 20
7.873374826118214
 30
0.0
 11
14.4247410073986
 21
8.953374826118214
 31
0.0
  0
LINE
  5
B0
330
1F
100
AcDbEntity
  8
MandrelLower
100
AcDbLine
 10
8.974993111952331
 20
8.825874826118212
 30
0.0
 11
9.474993111952329
 21
8.825874826118214
 31
0.0
  0
LINE
  5
B1
330
1F
100
AcDbEntity
  8
MandrelLower
100
AcDbLine
 10
8.974993111952331
 20
8.000874826118215
 30
0.0
 11
9.474993111952331
 21
8.000874826118215
 31
0.0
  0
LINE
  5
B2
330
1F
100
AcDbEntity
  8
MandrelUpper
100
AcDbLine
 10
16.42030561195233
 20
9.290874826118228
 30
0.0
 11
16.42030561195233
 21
9.66587482611823
 31
0.0
  0
LINE
  5
B9
330
1F
100
AcDbEntity
  8
MandrelUpper
100
AcDbLine
 10
12.982047938482
 20
8.978374826118212
 30
0.0
 11
12.982047938482
 21
9.978374826118212
 31
0.0
  0
LINE
  5
BA
330
1F
100
AcDbEntity
  8
MandrelUpper
100
AcDbLine
 10
12.482047938482
 20
8.978374826118212
 30
0.0
 11
12.482047938482
 21
9.978374826118212
 31
0.0
  0
LINE
  5
BB
330
1F
100
AcDbEntity
  8
MandrelUpper
100
AcDbLine
 10
12.482047938482
 20
9.978374826118212
 30
0.0
 11
12.982047938482
 21
9.978374826118212
 31
0.0
  0
LINE
  5
BC
330
1F
100
AcDbEntity
  8
MandrelUpper
100
AcDbLine
 10
12.982047938482
 20
8.978374826118212
 30
0.0
 11
12.482047938482
 21
8.978374826118212
 31
0.0
  0
LINE
  5
BD
330
1F
100
AcDbEntity
  8
MandrelUpper
100
AcDbLine
 10
14.52547035239654
 20
9.89087482611821
 30
0.0
 11
14.1641160073986
 21
9.890874826118208
 31
0.0
  0
LINE
  5
BE
330
1F
100
AcDbEntity
  8
MandrelUpper
100
AcDbLine
 10
15.02547035239653
 20
9.978374826118212
 30
0.0
 11
14.52547035239653
 21
9.978374826118212
 31
0.0
  0
LINE
  5
BF
330
1F
100
AcDbEntity
  8
MandrelUpper
100
AcDbLine
 10
15.02547035239653
 20
8.978374826118212
 30
0.0
 11
15.02547035239653
 21
9.978374826118212
 31
0.0
  0
LINE
  5
C0
330
1F
100
AcDbEntity
  8
MandrelUpper
100
AcDbLine
 10
14.52547035239653
 20
8.978374826118212
 30
0.0
 11
14.52547035239653
 21
9.978374826118212
 31
0.0
  0
LINE
  5
C1
330
1F
100
AcDbEntity
  8
MandrelUpper
100
AcDbLine
 10
14.52547035239653
 20
9.065874826118212
 30
0.0
 11
14.1641160073986
 21
9.065874826118212
 31
0.0
  0
LINE
  5
C2
330
1F
100
AcDbEntity
  8
MandrelUpper
100
AcDbLine
 10
14.52547035239653
 20
8.978374826118212
 30
0.0
 11
15.02547035239653
 21
8.978374826118212
 31
0.0
  0
LINE
  5
C3
330
1F
100
AcDbEntity
  8
MandrelUpper
100
AcDbLine
 10
15.42030561195233
 20
9.165874826118226
 30
0.0
 11
15.42030561195232
 21
9.790874826118225
 31
0.0
  0
LINE
  5
C7
330
1F
100
AcDbEntity
  8
MandrelUpper
100
AcDbLine
 10
16.42030561195233
 20
9.66587482611823
 30
0.0
 11
15.42030561195233
 21
9.665874826118225
 31
0.0
  0
LINE
  5
C8
330
1F
100
AcDbEntity
  8
MandrelUpper
100
AcDbLine
 10
16.42030561195233
 20
9.29087482611823
 30
0.0
 11
15.42030561195233
 21
9.290874826118225
 31
0.0
  0
LINE
  5
C9
330
1F
100
AcDbEntity
  8
0
100
AcDbLine
 10
11.2091160073986
 20
10.57394325205785
 30
0.0
 11
10.2091160073986
 21
10.57394325205785
 31
0.0
  0
LINE
  5
CA
330
1F
100
AcDbEntity
  8
0
100
AcDbLine
 10
11.28411600739861
 20
10.97834325205785
 30
0.0
 11
10.2841160073986
 21
10.97834325205785
 31
0.0
  0
LINE
  5
CB
330
1F
100
AcDbEntity
  8
0
100
AcDbLine
 10
11.2091160073986
 20
10.57394325205785
 30
0.0
 11
11.2091160073986
 21
10.97834325205785
 31
0.0
  0
LINE
  5
CC
330
1F
100
AcDbEntity
  8
0
100
AcDbLine
 10
10.2091160073986
 20
10.97834325205785
 30
0.0
 11
10.2091160073986
 21
10.57394325205785
 31
0.0
  0
LINE
  5
CD
330
1F
100
AcDbEntity
  8
0
100
AcDbLine
 10
10.0341160073986
 20
10.97834325205785
 30
0.0
 11
14.0341160073986
 21
10.97834325205785
 31
0.0
  0
LINE
  5
CE
330
1F
100
AcDbEntity
  8
0
100
AcDbLine
 10
10.7091160073986
 20
10.57394325205785
 30
0.0
 11
10.7091160073986
 21
10.97834325205785
 31
0.0
  0
LINE
  5
CF
330
1F
100
AcDbEntity
  8
MandrelLower
100
AcDbLine
 10
13.04249311195233
 20
8.725874826118214
 30
0.0
 11
13.04249311195233
 21
8.100874826118214
 31
0.0
  0
LINE
  5
D0
330
1F
100
AcDbEntity
  8
0
100
AcDbLine
 10
10.2091160073986
 20
10.97834325205785
 30
0.0
 11
10.2091160073986
 21
6.07394325205785
 31
0.0
  0
LINE
  5
D1
330
1F
100
AcDbEntity
  8
0
100
AcDbLine
 10
13.8591160073986
 20
10.97834325205785
 30
0.0
 11
13.8591160073986
 21
6.07394325205785
 31
0.0
  0
LINE
  5
D2
330
1F
100
AcDbEntity
  8
0
100
AcDbLine
 10
10.7091160073986
 20
10.57394325205785
 30
0.0
 11
10.7091160073986
 21
10.16587482611821
 31
0.0
  0
LINE
  5
D3
330
1F
100
AcDbEntity
  8
0
100
AcDbLine
 10
10.0341160073986
 20
6.07394325205785
 30
0.0
 11
14.0341160073986
 21
6.07394325205785
 31
0.0
  0
LINE
  5
DD
330
1F
100
AcDbEntity
  8
MandrelUpper
100
AcDbLine
 10
10.4928660073986
 20
9.89087482611821
 30
0.0
 11
10.2091160073986
 21
9.89087482611821
 31
0.0
  0
LINE
  5
DE
330
1F
100
AcDbEntity
  8
MandrelUpper
100
AcDbLine
 10
10.4928660073986
 20
9.065874826118212
 30
0.0
 11
10.2091160073986
 21
9.065874826118212
 31
0.0
  0
LINE
  5
13F
330
1F
100
AcDbEntity
  8
MandrelUpper
100
AcDbLine
 10
18.4916922793848
 20
9.364719037201369
 30
0.0
 11
24.48611225862189
 21
9.106012422435991
 31
0.0
  0
LINE
  5
140
330
1F
100
AcDbEntity
  8
MandrelUpper
100
AcDbLine
 10
18.42341702604436
 20
9.993247447408533
 30
0.0
 11
24.5130608643266
 21
9.730431170273181
 31
0.0
  0
LINE
  5
141
330
1F
100
AcDbEntity
  8
MandrelLower
100
AcDbLine
 10
17.60527714283825
 20
8.100874826118214
 30
0.0
 11
23.60527714283825
 21
8.100874826118214
 31
0.0
  0
LINE
  5
142
330
1F
100
AcDbEntity
  8
MandrelLower
100
AcDbLine
 10
17.60527714283825
 20
8.725874826118214
 30
0.0
 11
23.60527714283825
 21
8.725874826118214
 31
0.0
  0
LINE
  5
143
330
1F
100
AcDbEntity
  8
0
100
AcDbLine
 10
19.09690003828453
 20
6.07394325205785
 30
0.0
 11
23.09690003828453
 21
6.07394325205785
 31
0.0
  0
LINE
  5
144
330
1F
100
AcDbEntity
  8
0
100
AcDbLine
 10
19.09690003828453
 20
10.97834325205785
 30
0.0
 11
23.09690003828453
 21
10.97834325205785
 31
0.0
  0
LINE
  5
147
330
1F
100
AcDbEntity
  8
0
100
AcDbLine
 10
19.27190003828452
 20
10.97834325205785
 30
0.0
 11
19.27190003828452
 21
6.07394325205785
 31
0.0
  0
LINE
  5
148
330
1F
100
AcDbEntity
  8
0
100
AcDbLine
 10
19.09690003828453
 20
10.97834325205785
 30
0.0
 11
19.09690003828452
 21
6.07394325205785
 31
0.0
  0
LINE
  5
149
330
1F
100
AcDbEntity
  8
MandrelUpper
100
AcDbLine
 10
19.5470860265289
 20
8.943821376992829
 30
0.0
 11
19.60637295907929
 21
10.31754262223466
 31
0.0
  0
LINE
  5
14A
330
1F
100
AcDbEntity
  8
MandrelUpper
100
AcDbLine
 10
19.97918380003223
 20
8.925172941845158
 30
0.0
 11
20.03847073258263
 21
10.29889418708698
 31
0.0
  0
LINE
  5
14B
330
1F
100
AcDbEntity
  8
MandrelUpper
100
AcDbLine
 10
19.54708602652889
 20
8.943821376992829
 30
0.0
 11
19.60637295907929
 21
10.31754262223466
 31
0.0
  0
LINE
  5
14C
330
1F
100
AcDbEntity
  8
Tube
100
AcDbLine
 10
18.97027714283825
 20
10.60087482611821
 30
0.0
 11
18.97027714283825
 21
9.100874826118214
 31
0.0
  0
LINE
  5
14D
330
1F
100
AcDbEntity
  8
MandrelLower
100
AcDbLine
 10
18.97027714283825
 20
9.100874826118214
 30
0.0
 11
18.53777714283825
 21
9.100874826118214
 31
0.0
  0
LINE
  5
14E
330
1F
100
AcDbEntity
  8
MandrelLower
100
AcDbLine
 10
18.97027714283825
 20
7.725874826118214
 30
0.0
 11
18.53777714283825
 21
7.725874826118214
 31
0.0
  0
LINE
  5
14F
330
1F
100
AcDbEntity
  8
Tube
100
AcDbLine
 10
17.18457844390317
 20
9.165874826118214
 30
0.0
 11
18.97027714283825
 21
9.165874826118214
 31
0.0
  0
LINE
  5
150
330
1F
100
AcDbEntity
  8
Tube
100
AcDbLine
 10
17.18457844390317
 20
9.100874826118214
 30
0.0
 11
18.97027714283825
 21
9.100874826118214
 31
0.0
  0
LINE
  5
151
330
1F
100
AcDbEntity
  8
MandrelLower
100
AcDbLine
 10
18.03777714283825
 20
7.725874826118214
 30
0.0
 11
18.03777714283825
 21
9.100874826118214
 31
0.0
  0
LINE
  5
152
330
1F
100
AcDbEntity
  8
MandrelLower
100
AcDbLine
 10
17.60527714283825
 20
7.725874826118214
 30
0.0
 11
17.60527714283825
 21
9.100874826118214
 31
0.0
  0
LINE
  5
153
330
1F
100
AcDbEntity
  8
MandrelLower
100
AcDbLine
 10
17.21465214283825
 20
8.882124826118214
 30
0.0
 11
17.21465214283825
 21
7.944624826118214
 31
0.0
  0
LINE
  5
154
330
1F
100
AcDbEntity
  8
MandrelLower
100
AcDbLine
 10
17.60527714283825
 20
7.944624826118214
 30
0.0
 11
17.60527714283825
 21
8.882124826118214
 31
0.0
  0
LINE
  5
155
330
1F
100
AcDbEntity
  8
MandrelLower
100
AcDbLine
 10
17.60527714283825
 20
8.725874826118214
 30
0.0
 11
17.60527714283825
 21
8.100874826118214
 31
0.0
  0
LINE
  5
156
330
1F
100
AcDbEntity
  8
MandrelLower
100
AcDbLine
 10
18.53777714283825
 20
7.725874826118214
 30
0.0
 11
18.53777714283825
 21
9.100874826118214
 31
0.0
  0
LINE
  5
157
330
1F
100
AcDbEntity
  8
MandrelLower
100
AcDbLine
 10
18.53777714283825
 20
7.725874826118214
 30
0.0
 11
18.53777714283825
 21
9.100874826118214
 31
0.0
  0
LINE
  5
158
330
1F
100
AcDbEntity
  8
MandrelLower
100
AcDbLine
 10
18.03777714283825
 20
7.725874826118214
 30
0.0
 11
17.60527714283825
 21
7.725874826118214
 31
0.0
  0
LINE
  5
159
330
1F
100
AcDbEntity
  8
MandrelLower
100
AcDbLine
 10
17.60527714283825
 20
7.944624826118214
 30
0.0
 11
17.21465214283825
 21
7.944624826118214
 31
0.0
  0
LINE
  5
15A
330
1F
100
AcDbEntity
  8
MandrelLower
100
AcDbLine
 10
17.60527714283825
 20
8.413374826118214
 30
0.0
 11
17.21465214283825
 21
8.413374826118214
 31
0.0
  0
LINE
  5
15B
330
1F
100
AcDbEntity
  8
MandrelLower
100
AcDbLine
 10
18.03777714283825
 20
8.000874826118215
 30
0.0
 11
18.53777714283825
 21
8.000874826118215
 31
0.0
  0
LINE
  5
15C
330
1F
100
AcDbEntity
  8
MandrelLower
100
AcDbLine
 10
18.03777714283825
 20
9.100874826118214
 30
0.0
 11
17.60527714283825
 21
9.100874826118214
 31
0.0
  0
LINE
  5
15D
330
1F
100
AcDbEntity
  8
MandrelLower
100
AcDbLine
 10
17.60527714283825
 20
8.882124826118214
 30
0.0
 11
17.21465214283825
 21
8.882124826118214
 31
0.0
  0
LINE
  5
15E
330
1F
100
AcDbEntity
  8
MandrelUpper
100
AcDbLine
 10
18.12837916769128
 20
10.00598066360401
 30
0.0
 11
18.10143056198655
 21
9.381561915766823
 31
0.0
  0
LINE
  5
15F
330
1F
100
AcDbEntity
  8
MandrelUpper
100
AcDbLine
 10
18.34435903205627
 20
9.321031088200742
 30
0.0
 11
18.37561941467376
 21
10.04535683569188
 31
0.0
  0
LINE
  5
160
330
1F
100
AcDbEntity
  8
MandrelUpper
100
AcDbLine
 10
18.2757124150198
 20
10.04966861260464
 30
0.0
 11
18.24445203240232
 21
9.325342865113496
 31
0.0
  0
LINE
  5
161
330
1F
100
AcDbEntity
  8
MandrelUpper
100
AcDbLine
 10
18.19665442103173
 20
9.377452253396851
 30
0.0
 11
18.22360302673644
 21
10.00187100123404
 31
0.0
  0
LINE
  5
162
330
1F
100
AcDbEntity
  8
MandrelUpper
100
AcDbLine
 10
18.42341702604436
 20
9.993247447408533
 30
0.0
 11
18.39646842033963
 21
9.36882869957134
 31
0.0
  0
LINE
  5
163
330
1F
100
AcDbEntity
  8
MandrelUpper
100
AcDbLine
 10
18.4916922793848
 20
9.364719037201369
 30
0.0
 11
18.51864088508953
 21
9.989137785038563
 31
0.0
  0
ARC
  5
164
330
1F
100
AcDbEntity
  8
MandrelUpper
100
AcDbCircle
 10
18.39431253188325
 20
9.318875199744363
 30
0.0
 40
0.05
100
AcDbArc
 50
87.52876767459175
 51
177.5287676745917
  0
LINE
  5
165
330
1F
100
AcDbEntity
  8
MandrelLower
100
AcDbLine
 10
18.03777714283825
 20
8.825874826118212
 30
0.0
 11
18.53777714283825
 21
8.825874826118214
 31
0.0
  0
LINE
  5
166
330
1F
100
AcDbEntity
  8
MandrelUpper
100
AcDbLine
 10
18.33977776908647
 20
9.214879901068421
 30
0.0
 11
18.34435903205627
 21
9.321031088200742
 31
0.0
  0
LINE
  5
167
330
1F
100
AcDbEntity
  8
MandrelUpper
100
AcDbLine
 10
18.24445203240232
 20
9.325342865113496
 30
0.0
 11
18.23987076943252
 21
9.219191677981177
 31
0.0
  0
LINE
  5
168
330
1F
100
AcDbEntity
  8
MandrelUpper
100
AcDbLine
 10
18.33977776908647
 20
9.214879901068421
 30
0.0
 11
18.23987076943252
 21
9.219191677981177
 31
0.0
  0
LINE
  5
169
330
1F
100
AcDbEntity
  8
MandrelUpper
100
AcDbLine
 10
18.10143056198655
 20
9.381561915766823
 30
0.0
 11
18.19665442103173
 21
9.377452253396851
 31
0.0
  0
ARC
  5
16A
330
1F
100
AcDbEntity
  8
MandrelUpper
100
AcDbCircle
 10
18.19449853257535
 20
9.327498753569873
 30
0.0
 40
0.05
100
AcDbArc
 50
357.5287676745917
 51
87.52876767459175
  0
LINE
  5
16B
330
1F
100
AcDbEntity
  8
MandrelUpper
100
AcDbLine
 10
18.39646842033963
 20
9.36882869957134
 30
0.0
 11
18.4916922793848
 21
9.364719037201369
 31
0.0
  0
ARC
  5
16C
330
1F
100
AcDbEntity
  8
MandrelUpper
100
AcDbCircle
 10
18.42557291450074
 20
10.04320094723551
 30
0.0
 40
0.05
100
AcDbArc
 50
177.5287676745917
 51
267.5287676745917
  0
LINE
  5
16D
330
1F
100
AcDbEntity
  8
MandrelUpper
100
AcDbLine
 10
18.22360302673645
 20
10.00187100123404
 30
0.0
 11
18.12837916769128
 21
10.00598066360401
 31
0.0
  0
ARC
  5
16E
330
1F
100
AcDbEntity
  8
MandrelUpper
100
AcDbCircle
 10
18.22575891519283
 20
10.05182450106102
 30
0.0
 40
0.05
100
AcDbArc
 50
267.5287676745917
 51
357.5287676745917
  0
LINE
  5
16F
330
1F
100
AcDbEntity
  8
MandrelUpper
100
AcDbLine
 10
18.38020067764356
 20
10.15150802282421
 30
0.0
 11
18.37561941467376
 21
10.04535683569188
 31
0.0
  0
LINE
  5
170
330
1F
100
AcDbEntity
  8
MandrelUpper
100
AcDbLine
 10
18.2757124150198
 20
10.04966861260464
 30
0.0
 11
18.28029367798961
 21
10.15581979973696
 31
0.0
  0
LINE
  5
171
330
1F
100
AcDbEntity
  8
MandrelUpper
100
AcDbLine
 10
18.38020067764356
 20
10.15150802282421
 30
0.0
 11
18.28029367798961
 21
10.15581979973696
 31
0.0
  0
LINE
  5
174
330
1F
100
AcDbEntity
  8
MandrelLower
100
AcDbLine
 10
18.97027714283825
 20
7.725874826118214
 30
0.0
 11
18.97027714283825
 21
9.100874826118214
 31
0.0
  0
LINE
  5
175
330
1F
100
AcDbEntity
  8
MandrelLower
100
AcDbLine
 10
18.97027714283825
 20
8.000874826118215
 30
0.0
 11
19.09690003828453
 21
8.000874826118215
 31
0.0
  0
LINE
  5
176
330
1F
100
AcDbEntity
  8
MandrelUpper
100
AcDbLine
 10
19.97918380003223
 20
8.925172941845158
 30
0.0
 11
19.54708602652889
 21
8.943821376992829
 31
0.0
  0
LINE
  5
177
330
1F
100
AcDbEntity
  8
MandrelUpper
100
AcDbLine
 10
19.55894341303897
 20
9.218565626041195
 30
0.0
 11
19.27545730152089
 21
9.230800293031142
 31
0.0
  0
LINE
  5
178
330
1F
100
AcDbEntity
  8
MandrelLower
100
AcDbLine
 10
18.97027714283825
 20
8.825874826118214
 30
0.0
 11
19.09690003828453
 21
8.825874826118214
 31
0.0
  0
LINE
  5
179
330
1F
100
AcDbEntity
  8
MandrelUpper
100
AcDbLine
 10
19.59451557256921
 20
10.04279837318629
 30
0.0
 11
19.31102946105113
 21
10.05503304017623
 31
0.0
  0
LINE
  5
17A
330
1F
100
AcDbEntity
  8
MandrelLower
100
AcDbLine
 10
22.10527714283825
 20
8.725874826118214
 30
0.0
 11
22.10527714283825
 21
8.100874826118214
 31
0.0
  0
LINE
  5
17B
330
1F
100
AcDbEntity
  8
MandrelUpper
100
AcDbLine
 10
21.58562036237183
 20
10.04444791062632
 30
0.0
 11
22.08515536064158
 21
10.02288902606254
 31
0.0
  0
LINE
  5
17C
330
1F
100
AcDbEntity
  8
MandrelUpper
100
AcDbLine
 10
22.04203759151402
 20
9.023819029523032
 30
0.0
 11
21.54250259324427
 21
9.045377914086813
 31
0.0
  0
LINE
  5
17D
330
1F
100
AcDbEntity
  8
MandrelUpper
100
AcDbLine
 10
21.54250259324427
 20
9.045377914086813
 30
0.0
 11
21.58562036237183
 21
10.04444791062632
 31
0.0
  0
LINE
  5
17F
330
1F
100
AcDbEntity
  8
MandrelUpper
100
AcDbLine
 10
22.04203759151402
 20
9.023819029523032
 30
0.0
 11
22.08515536064158
 21
10.02288902606254
 31
0.0
  0
LINE
  5
181
330
1F
100
AcDbEntity
  8
Tube
100
AcDbLine
 10
17.18457844390317
 20
10.53587482611821
 30
0.0
 11
18.97027714283825
 21
10.53587482611821
 31
0.0
  0
LINE
  5
182
330
1F
100
AcDbEntity
  8
Tube
100
AcDbLine
 10
17.18457844390317
 20
10.60087482611821
 30
0.0
 11
18.97027714283825
 21
10.60087482611821
 31
0.0
  0
LINE
  5
183
330
1F
100
AcDbEntity
  8
MandrelUpper
100
AcDbLine
 10
20.03847073258263
 20
10.29889418708698
 30
0.0
 11
19.60637295907929
 21
10.31754262223466
 31
0.0
  0
LINE
  5
184
330
1F
100
AcDbEntity
  8
0
100
AcDbLine
 10
20.27190003828452
 20
10.57394325205785
 30
0.0
 11
19.27190003828452
 21
10.57394325205785
 31
0.0
  0
LINE
  5
185
330
1F
100
AcDbEntity
  8
0
100
AcDbLine
 10
20.34690003828452
 20
10.97834325205785
 30
0.0
 11
19.34690003828453
 21
10.97834325205785
 31
0.0
  0
LINE
  5
186
330
1F
100
AcDbEntity
  8
0
100
AcDbLine
 10
19.27190003828452
 20
10.97834325205785
 30
0.0
 11
19.27190003828452
 21
10.57394325205785
 31
0.0
  0
LINE
  5
187
330
1F
100
AcDbEntity
  8
0
100
AcDbLine
 10
20.27190003828452
 20
10.57394325205785
 30
0.0
 11
20.27190003828452
 21
10.97834325205785
 31
0.0
  0
LINE
  5
188
330
1F
100
AcDbEntity
  8
0
100
AcDbLine
 10
19.77190003828452
 20
10.57394325205785
 30
0.0
 11
19.77190003828452
 21
10.97834325205785
 31
0.0
  0
LINE
  5
189
330
1F
100
AcDbEntity
  8
0
100
AcDbLine
 10
19.77190003828452
 20
10.57394325205785
 30
0.0
 11
19.77190003828452
 21
10.16587482611821
 31
0.0
  0
LINE
  5
18B
330
1F
100
AcDbEntity
  8
0
100
AcDbLine
 10
23.09690003828453
 20
10.97834325205785
 30
0.0
 11
23.09690003828453
 21
6.07394325205785
 31
0.0
  0
LINE
  5
18C
330
1F
100
AcDbEntity
  8
0
100
AcDbLine
 10
22.92190003828452
 20
10.97834325205785
 30
0.0
 11
22.92190003828452
 21
6.07394325205785
 31
0.0
  0
LINE
  5
18D
330
1F
100
AcDbEntity
  8
MandrelLower
100
AcDbLine
 10
23.60527714283825
 20
8.725874826118214
 30
0.0
 11
23.60527714283825
 21
8.100874826118214
 31
0.0
  0
LINE
  5
18E
330
1F
100
AcDbEntity
  8
0
100
AcDbLine
 10
23.48752503828453
 20
7.873374826118214
 30
0.0
 11
23.48752503828453
 21
8.953374826118214
 31
0.0
  0
LINE
  5
18F
330
1F
100
AcDbEntity
  8
0
100
AcDbLine
 10
23.09690003828453
 20
7.873374826118214
 30
0.0
 11
23.09690003828453
 21
8.953374826118214
 31
0.0
  0
LINE
  5
190
330
1F
100
AcDbEntity
  8
0
100
AcDbLine
 10
23.48752503828453
 20
7.873374826118215
 30
0.0
 11
23.09690003828453
 21
7.873374826118214
 31
0.0
  0
LINE
  5
191
330
1F
100
AcDbEntity
  8
MandrelUpper
100
AcDbLine
 10
23.62336958157152
 20
9.868921470055861
 30
0.0
 11
23.13247219781477
 21
9.890107573263307
 31
0.0
  0
LINE
  5
192
330
1F
100
AcDbEntity
  8
MandrelUpper
100
AcDbLine
 10
23.58779742204129
 20
9.044688722910766
 30
0.0
 11
23.09690003828453
 21
9.065874826118212
 31
0.0
  0
LINE
  5
193
330
1F
100
AcDbEntity
  8
0
100
AcDbLine
 10
23.48752503828453
 20
8.953374826118215
 30
0.0
 11
23.09690003828453
 21
8.953374826118214
 31
0.0
  0
LINE
  5
194
330
1F
100
AcDbEntity
  8
MandrelUpper
100
AcDbLine
 10
24.08355961551238
 20
8.935711213649778
 30
0.0
 11
24.12667738463994
 21
9.93478121018929
 31
0.0
  0
LINE
  5
195
330
1F
100
AcDbEntity
  8
MandrelUpper
100
AcDbLine
 10
23.58402461724262
 20
8.957270098213559
 30
0.0
 11
23.62714238637019
 21
9.956340094753072
 31
0.0
  0
LINE
  5
196
330
1F
100
AcDbEntity
  8
MandrelUpper
100
AcDbLine
 10
23.58402461724262
 20
8.957270098213559
 30
0.0
 11
24.08355961551238
 21
8.935711213649778
 31
0.0
  0
LINE
  5
197
330
1F
100
AcDbEntity
  8
MandrelUpper
100
AcDbLine
 10
24.12667738463994
 20
9.93478121018929
 30
0.0
 11
23.62714238637019
 21
9.956340094753072
 31
0.0
  0
LINE
  5
198
330
1F
100
AcDbEntity
  8
MandrelUpper
100
AcDbLine
 10
25.50674113972517
 20
9.562429651578197
 30
0.0
 11
24.50767114318566
 21
9.605547420705756
 31
0.0
  0
LINE
  5
199
330
1F
100
AcDbEntity
  8
MandrelUpper
100
AcDbLine
 10
25.49057197630233
 20
9.187778402875879
 30
0.0
 11
24.49150197976282
 21
9.230896172003438
 31
0.0
  0
LINE
  5
19A
330
1F
100
AcDbEntity
  8
MandrelUpper
100
AcDbLine
 10
24.48611225862188
 20
9.106012422436002
 30
0.0
 11
24.5130608643266
 21
9.730431170273195
 31
0.0
  0
LINE
  5
19B
330
1F
100
AcDbEntity
  8
MandrelUpper
100
AcDbLine
 10
25.49057197630234
 20
9.187778402875878
 30
0.0
 11
25.50674113972517
 21
9.562429651578197
 31
0.0
  0
LINE
  5
19C
330
1F
100
AcDbEntity
  8
0
100
AcDbLine
 10
23.09690003828453
 20
9.065874826118212
 30
0.0
 11
23.13247219781477
 21
9.890107573263307
 31
0.0
  0
LINE
  5
19D
330
1F
100
AcDbEntity
  8
MandrelUpper
100
AcDbLine
 10
19.27545730152089
 20
9.230800293031142
 30
0.0
 11
19.31102946105113
 21
10.05503304017623
 31
0.0
  0
LINE
  5
207
330
1F
100
AcDbEntity
  8
MandrelUpper
100
AcDbLine
 10
9.179680611952333
 20
3.826214916316893
 30
0.0
 11
15.42030561195233
 21
3.826214916316891
 31
0.0
  0
LINE
  5
208
330
1F
100
AcDbEntity
  8
MandrelUpper
100
AcDbLine
 10
9.420305611952331
 20
3.201214916316894
 30
0.0
 11
15.42030561195233
 21
3.201214916316896
 31
0.0
  0
LINE
  5
211
330
1F
100
AcDbEntity
  8
MandrelUpper
100
AcDbLine
 10
9.029680611952331
 20
3.876214916316894
 30
0.0
 11
9.029680611952331
 21
3.982464916316896
 31
0.0
  0
LINE
  5
212
330
1F
100
AcDbEntity
  8
MandrelUpper
100
AcDbLine
 10
9.129680611952332
 20
3.982464916316896
 30
0.0
 11
9.129680611952332
 21
3.876214916316893
 31
0.0
  0
LINE
  5
214
330
1F
100
AcDbEntity
  8
MandrelUpper
100
AcDbLine
 10
9.179680611952333
 20
3.826214916316893
 30
0.0
 11
9.179680611952333
 21
3.201214916316895
 31
0.0
  0
LINE
  5
216
330
1F
100
AcDbEntity
  8
MandrelUpper
100
AcDbLine
 10
9.029680611952331
 20
3.876214916316894
 30
0.0
 11
9.029680611952331
 21
3.151214916316891
 31
0.0
  0
LINE
  5
217
330
1F
100
AcDbEntity
  8
MandrelUpper
100
AcDbLine
 10
9.129680611952332
 20
3.151214916316893
 30
0.0
 11
9.129680611952334
 21
3.876214916316893
 31
0.0
  0
LINE
  5
218
330
1F
100
AcDbEntity
  8
MandrelUpper
100
AcDbLine
 10
9.420305611952331
 20
3.201214916316894
 30
0.0
 11
9.420305611952329
 21
3.826214916316892
 31
0.0
  0
LINE
  5
219
330
1F
100
AcDbEntity
  8
MandrelUpper
100
AcDbLine
 10
9.029680611952329
 20
3.826214916316892
 30
0.0
 11
9.029680611952331
 21
3.201214916316894
 31
0.0
  0
ARC
  5
21A
330
1F
100
AcDbEntity
  8
MandrelUpper
100
AcDbCircle
 10
9.179680611952333
 20
3.151214916316893
 30
0.0
 40
0.05
100
AcDbArc
 50
90.0
 51
180.0
  0
LINE
  5
21B
330
1F
100
AcDbEntity
  8
MandrelUpper
100
AcDbLine
 10
9.129680611952332
 20
3.044964916316895
 30
0.0
 11
9.029680611952333
 21
3.044964916316895
 31
0.0
  0
LINE
  5
21D
330
1F
100
AcDbEntity
  8
MandrelUpper
100
AcDbLine
 10
9.029680611952333
 20
3.151214916316891
 30
0.0
 11
9.029680611952334
 21
3.044964916316895
 31
0.0
  0
LINE
  5
21F
330
1F
100
AcDbEntity
  8
MandrelUpper
100
AcDbLine
 10
9.129680611952332
 20
3.044964916316895
 30
0.0
 11
9.129680611952332
 21
3.151214916316893
 31
0.0
  0
LINE
  5
220
330
1F
100
AcDbEntity
  8
MandrelUpper
100
AcDbLine
 10
9.179680611952333
 20
3.201214916316895
 30
0.0
 11
9.420305611952331
 21
3.201214916316894
 31
0.0
  0
ARC
  5
221
330
1F
100
AcDbEntity
  8
MandrelUpper
100
AcDbCircle
 10
9.179680611952333
 20
3.876214916316893
 30
0.0
 40
0.05
100
AcDbArc
 50
180.0
 51
270.0
  0
LINE
  5
225
330
1F
100
AcDbEntity
  8
MandrelUpper
100
AcDbLine
 10
9.129680611952332
 20
3.982464916316896
 30
0.0
 11
9.029680611952334
 21
3.982464916316896
 31
0.0
  0
LINE
  5
236
330
1F
100
AcDbEntity
  8
MandrelUpper
100
AcDbLine
 10
16.42030561195233
 20
3.32621491631691
 30
0.0
 11
15.42030561195233
 21
3.326214916316905
 31
0.0
  0
LINE
  5
237
330
1F
100
AcDbEntity
  8
MandrelUpper
100
AcDbLine
 10
16.42030561195233
 20
3.70121491631691
 30
0.0
 11
15.42030561195233
 21
3.701214916316905
 31
0.0
  0
LINE
  5
238
330
1F
100
AcDbEntity
  8
MandrelUpper
100
AcDbLine
 10
15.42030561195233
 20
3.201214916316907
 30
0.0
 11
15.42030561195232
 21
3.826214916316905
 31
0.0
  0
LINE
  5
239
330
1F
100
AcDbEntity
  8
MandrelUpper
100
AcDbLine
 10
16.42030561195233
 20
3.326214916316908
 30
0.0
 11
16.42030561195233
 21
3.70121491631691
 31
0.0
  0
DIMENSION
  5
23A
330
1F
100
AcDbEntity
  8
0
100
AcDbDimension
  2
*D6
 10
8.199821278339562
 20
3.982464916316896
 30
0.0
 11
8.199821278339562
 21
3.513714916316897
 31
0.0
 70
    32
 71
     5
 42
0.9375
  3
Standard
100
AcDbAlignedDimension
 13
9.029680611952333
 23
3.044964916316895
 33
0.0
 14
9.029680611952331
 24
3.982464916316896
 34
0.0
 50
90.0
100
AcDbRotatedDimension
  0
DIMENSION
  5
248
330
1F
100
AcDbEntity
  8
0
100
AcDbDimension
  2
*D7
 10
9.129680611952332
 20
4.563195961772834
 30
0.0
 11
9.864680611952332
 21
4.563195961772834
 31
0.0
 70
    32
 71
     5
 42
0.0999999999999979
  3
Standard
100
AcDbAlignedDimension
 13
9.029680611952334
 23
3.982464916316896
 33
0.0
 14
9.129680611952332
 24
3.982464916316896
 34
0.0
100
AcDbRotatedDimension
  0
LINE
  5
256
330
1F
100
AcDbEntity
  8
0
100
AcDbLine
 10
1.417755485189736
 20
10.97835076052797
 30
0.0
 11
5.417755485189738
 21
10.97835076052797
 31
0.0
  0
LINE
  5
257
330
1F
100
AcDbEntity
  8
0
100
AcDbLine
 10
1.592755485189737
 20
10.97835076052797
 30
0.0
 11
1.592755485189737
 21
5.978753460272755
 31
0.0
  0
LINE
  5
258
330
1F
100
AcDbEntity
  8
0
100
AcDbLine
 10
1.417755485189736
 20
10.97835076052797
 30
0.0
 11
1.417755485189735
 21
5.978753460272755
 31
0.0
  0
LINE
  5
259
330
1F
100
AcDbEntity
  8
0
100
AcDbLine
 10
2.092755485189737
 20
10.57395076052797
 30
0.0
 11
2.092755485189737
 21
10.97835076052797
 31
0.0
  0
LINE
  5
25A
330
1F
100
AcDbEntity
  8
0
100
AcDbLine
 10
1.592755485189737
 20
10.97835076052797
 30
0.0
 11
1.592755485189737
 21
10.57395076052797
 31
0.0
  0
LINE
  5
25B
330
1F
100
AcDbEntity
  8
0
100
AcDbLine
 10
2.592755485189737
 20
10.57395076052797
 30
0.0
 11
2.592755485189737
 21
10.97835076052797
 31
0.0
  0
LINE
  5
25C
330
1F
100
AcDbEntity
  8
0
100
AcDbLine
 10
2.592755485189737
 20
10.57395076052797
 30
0.0
 11
1.592755485189737
 21
10.57395076052797
 31
0.0
  0
LINE
  5
25D
330
1F
100
AcDbEntity
  8
0
100
AcDbLine
 10
2.092755485189737
 20
10.57395076052797
 30
0.0
 11
2.092755485189737
 21
10.16588233458833
 31
0.0
  0
LINE
  5
25E
330
1F
100
AcDbEntity
  8
0
100
AcDbLine
 10
2.667755485189738
 20
10.97835076052797
 30
0.0
 11
1.667755485189738
 21
10.97835076052797
 31
0.0
  0
LINE
  5
25F
330
1F
100
AcDbEntity
  8
0
100
AcDbLine
 10
5.242755485189736
 20
10.97835076052797
 30
0.0
 11
5.242755485189734
 21
5.978753460272755
 31
0.0
  0
LINE
  5
260
330
1F
100
AcDbEntity
  8
0
100
AcDbLine
 10
5.417755485189736
 20
10.97835076052797
 30
0.0
 11
5.417755485189736
 21
5.978753460272755
 31
0.0
  0
LINE
  5
261
330
1F
100
AcDbEntity
  8
0
100
AcDbLine
 10
1.417755485189736
 20
5.978753460272755
 30
0.0
 11
5.417755485189738
 21
5.978753460272755
 31
0.0
  0
LINE
  5
262
330
1F
100
AcDbEntity
  8
0
100
AcDbLine
 10
5.417755485189736
 20
8.721082334588336
 30
0.0
 11
5.242755485189735
 21
8.721082334588336
 31
0.0
  0
LINE
  5
263
330
1F
100
AcDbEntity
  8
0
100
AcDbLine
 10
5.417755485189737
 20
8.096082334588336
 30
0.0
 11
5.242755485189735
 21
8.096082334588338
 31
0.0
  0
LINE
  5
264
330
1F
100
AcDbEntity
  8
0
100
AcDbLine
 10
5.417755485189736
 20
9.161082334588336
 30
0.0
 11
5.242755485189734
 21
9.161082334588336
 31
0.0
  0
LINE
  5
265
330
1F
100
AcDbEntity
  8
0
100
AcDbLine
 10
1.592755485189737
 20
9.959388839256506
 30
0.0
 11
1.417755485189736
 21
9.959388839256506
 31
0.0
  0
LINE
  5
267
330
1F
100
AcDbEntity
  8
0
100
AcDbLine
 10
5.417755485189736
 20
9.786082334588334
 30
0.0
 11
5.242755485189736
 21
9.786082334588334
 31
0.0
  0
LINE
  5
268
330
1F
100
AcDbEntity
  8
0
100
AcDbLine
 10
1.592755485189737
 20
9.161082334588336
 30
0.0
 11
1.417755485189736
 21
9.161082334588336
 31
0.0
  0
LINE
  5
269
330
1F
100
AcDbEntity
  8
0
100
AcDbLine
 10
1.592755485189737
 20
8.721082334588338
 30
0.0
 11
1.417755485189736
 21
8.721082334588338
 31
0.0
  0
LINE
  5
26A
330
1F
100
AcDbEntity
  8
0
100
AcDbLine
 10
1.592755485189737
 20
8.096082334588338
 30
0.0
 11
1.417755485189736
 21
8.096082334588336
 31
0.0
  0
LINE
  5
26F
330
1F
100
AcDbEntity
  8
0
  6
CENTER
100
AcDbLine
 10
5.617755485189736
 20
8.413374826118214
 30
0.0
 11
5.042755485189736
 21
8.413374826118214
 31
0.0
  0
LINE
  5
270
330
1F
100
AcDbEntity
  8
0
  6
CENTER
100
AcDbLine
 10
5.617755485189737
 20
9.478374826118214
 30
0.0
 11
5.042755485189735
 21
9.478374826118212
 31
0.0
  0
LINE
  5
271
330
1F
100
AcDbEntity
  8
0
  6
CENTER
100
AcDbLine
 10
1.792755485189737
 20
8.413374826118214
 30
0.0
 11
1.217755485189735
 21
8.413374826118214
 31
0.0
  0
DIMENSION
  5
274
330
1F
100
AcDbEntity
  8
0
100
AcDbDimension
  2
*D8
 10
5.971659868851439
 20
9.478374826118214
 30
0.0
 11
5.971659868851438
 21
10.22836279332309
 31
0.0
 70
    32
 71
     5
 42
1.499975934409757
  3
Standard
100
AcDbAlignedDimension
 13
5.417755485189736
 23
10.97835076052797
 33
0.0
 14
5.617755485189737
 24
9.478374826118214
 34
0.0
 50
90.0
100
AcDbRotatedDimension
  0
DIMENSION
  5
282
330
1F
100
AcDbEntity
  8
0
100
AcDbDimension
  2
*D9
 10
6.863087816373699
 20
8.413374826118214
 30
0.0
 11
6.863087816373698
 21
9.695862793323094
 31
0.0
 70
    32
 71
     5
 42
2.564975934409757
  3
Standard
100
AcDbAlignedDimension
 13
5.417755485189736
 23
10.97835076052797
 33
0.0
 14
5.617755485189736
 24
8.413374826118214
 34
0.0
 50
90.0
100
AcDbRotatedDimension
  0
DIMENSION
  5
29E
330
1F
100
AcDbEntity
  8
0
100
AcDbDimension
  2
*D11
 10
5.417755485189736
 20
11.53346695699736
 30
0.0
 11
3.417755485189736
 21
11.53346695699736
 31
0.0
 70
    32
 71
     5
 42
4.0
  3
Standard
100
AcDbAlignedDimension
 13
1.417755485189736
 23
10.97835076052797
 33
0.0
 14
5.417755485189736
 24
10.97835076052797
 34
0.0
100
AcDbRotatedDimension
  0
DIMENSION
  5
2DE
330
1F
100
AcDbEntity
  8
0
100
AcDbDimension
  2
*D12
 10
0.7818398747705189
 20
9.959388839256506
 30
0.0
 11
0.7818398747705173
 21
10.46886979989223
 31
0.0
 70
    32
 71
     5
 42
1.018961921271465
  3
Standard
100
AcDbAlignedDimension
 13
1.417755485189736
 23
10.97835076052797
 33
0.0
 14
1.417755485189736
 24
9.959388839256506
 34
0.0
 50
90.0
100
AcDbRotatedDimension
  0
DIMENSION
  5
2EC
330
1F
100
AcDbEntity
  8
0
100
AcDbDimension
  2
*D13
 10
0.1346387934240027
 20
9.161082334588336
 30
0.0
 11
0.1346387934240012
 21
10.06971654755815
 31
0.0
 70
    32
 71
     5
 42
1.817268425939635
  3
Standard
100
AcDbAlignedDimension
 13
1.417755485189736
 23
10.97835076052797
 33
0.0
 14
1.417755485189736
 24
9.161082334588336
 34
0.0
 50
90.0
100
AcDbRotatedDimension
  0
LINE
  5
308
330
1F
100
AcDbEntity
  8
0
100
AcDbLine
 10
5.042755485189736
 20
8.413374826118214
 30
0.0
 11
1.792755485189737
 21
8.413374826118214
 31
0.0
  0
LINE
  5
309
330
1F
100
AcDbEntity
  8
0
100
AcDbLine
 10
1.417755485189736
 20
10.97835076052797
 30
0.0
 11
1.417755485189735
 21
5.978753460272755
 31
0.0
  0
LINE
  5
30A
330
1F
100
AcDbEntity
  8
0
100
AcDbLine
 10
1.417755485189735
 20
5.978753460272755
 30
0.0
 11
1.417755485189736
 21
10.97835076052797
 31
0.0
  0
DIMENSION
  5
30B
330
1F
100
AcDbEntity
  8
0
100
AcDbDimension
  2
*D15
 10
-0.5003509446137218
 20
5.978753460272755
 30
0.0
 11
-0.5003509446137226
 21
8.478552110400363
 31
0.0
 70
    32
 71
     5
 42
4.999597300255216
  3
Standard
100
AcDbAlignedDimension
 13
1.417755485189736
 23
10.97835076052797
 33
0.0
 14
1.417755485189735
 24
5.978753460272755
 34
0.0
 50
90.0
100
AcDbRotatedDimension
  0
LINE
  5
32D
330
1F
100
AcDbEntity
  8
Washer-Machine
100
AcDbLine
 10
14.1641160073986
 20
9.978374826118214
 30
0.0
 11
14.0341160073986
 21
9.978374826118214
 31
0.0
  0
LINE
  5
32E
330
1F
100
AcDbEntity
  8
Washer-Machine
100
AcDbLine
 10
14.1641160073986
 20
8.978374826118212
 30
0.0
 11
14.0341160073986
 21
8.978374826118212
 31
0.0
  0
LINE
  5
32F
330
1F
100
AcDbEntity
  8
Washer-Machine
100
AcDbLine
 10
14.0991160073986
 20
9.978374826118214
 30
0.0
 11
14.0991160073986
 21
8.978374826118212
 31
0.0
  0
LINE
  5
330
330
1F
100
AcDbEntity
  8
Washer-Machine
100
AcDbLine
 10
14.1641160073986
 20
9.978374826118214
 30
0.0
 11
14.1641160073986
 21
8.978374826118212
 31
0.0
  0
LINE
  5
331
330
1F
100
AcDbEntity
  8
Washer-Machine
100
AcDbLine
 10
13.7941160073986
 20
9.978374826118214
 30
0.0
 11
13.7941160073986
 21
8.978374826118212
 31
0.0
  0
LINE
  5
332
330
1F
100
AcDbEntity
  8
Washer-Machine
100
AcDbLine
 10
13.7291160073986
 20
9.978374826118214
 30
0.0
 11
13.7291160073986
 21
8.978374826118212
 31
0.0
  0
LINE
  5
333
330
1F
100
AcDbEntity
  8
Washer-Machine
100
AcDbLine
 10
13.8591160073986
 20
9.978374826118214
 30
0.0
 11
13.7291160073986
 21
9.978374826118214
 31
0.0
  0
LINE
  5
334
330
1F
100
AcDbEntity
  8
Washer-Machine
100
AcDbLine
 10
13.8591160073986
 20
8.978374826118212
 30
0.0
 11
13.7291160073986
 21
8.978374826118212
 31
0.0
  0
ENDSEC
  0
SECTION
  2
OBJECTS
  0
DICTIONARY
  5
C
330
0
100
AcDbDictionary
281
     1
  3
ACAD_GROUP
350
D
  3
ACAD_LAYOUT
350
1A
  3
ACAD_MLINESTYLE
350
17
  3
ACAD_PLOTSETTINGS
350
19
  3
ACAD_PLOTSTYLENAME
350
E
  0
DICTIONARY
  5
D
102
{ACAD_REACTORS
330
C
102
}
330
C
100
AcDbDictionary
281
     1
  0
DICTIONARY
  5
1A
102
{ACAD_REACTORS
330
C
102
}
330
C
100
AcDbDictionary
281
     1
  3
Layout1
350
59
  3
Layout2
350
5E
  3
Model
350
22
  0
DICTIONARY
  5
17
102
{ACAD_REACTORS
330
C
102
}
330
C
100
AcDbDictionary
281
     1
  3
Standard
350
18
  0
DICTIONARY
  5
19
102
{ACAD_REACTORS
330
C
102
}
330
C
100
AcDbDictionary
281
     1
  0
ACDBDICTIONARYWDFLT
  5
E
102
{ACAD_REACTORS
330
C
102
}
330
C
100
AcDbDictionary
281
     1
  3
Normal
350
F
100
AcDbDictionaryWithDefault
340
F
  0
LAYOUT
  5
59
102
{ACAD_REACTORS
330
1A
102
}
330
1A
100
AcDbPlotSettings
  1

  2
None
  4

  6

 40
0.0
 41
0.0
 42
0.0
 43
0.0
 44
0.0
 45
0.0
 46
0.0
 47
0.0
 48
0.0
 49
0.0
140
0.0
141
0.0
142
1.0
143
1.0
 70
   688
 72
     0
 73
     0
 74
     5
  7

 75
    16
147
1.0
148
0.0
149
0.0
100
AcDbLayout
  1
Layout1
 70
     1
 71
     1
 10
0.0
 20
0.0
 11
12.0
 21
9.0
 12
0.0
 22
0.0
 32
0.0
 14
0.0
 24
0.0
 34
0.0
 15
0.0
 25
0.0
 35
0.0
146
0.0
 13
0.0
 23
0.0
 33
0.0
 16
1.0
 26
0.0
 36
0.0
 17
0.0
 27
1.0
 37
0.0
 76
     0
330
58
  0
LAYOUT
  5
5E
102
{ACAD_REACTORS
330
1A
102
}
330
1A
100
AcDbPlotSettings
  1

  2
None
  4

  6

 40
0.0
 41
0.0
 42
0.0
 43
0.0
 44
0.0
 45
0.0
 46
0.0
 47
0.0
 48
0.0
 49
0.0
140
0.0
141
0.0
142
1.0
143
1.0
 70
   688
 72
     0
 73
     0
 74
     5
  7

 75
    16
147
1.0
148
0.0
149
0.0
100
AcDbLayout
  1
Layout2
 70
     1
 71
     2
 10
0.0
 20
0.0
 11
12.0
 21
9.0
 12
0.0
 22
0.0
 32
0.0
 14
0.0
 24
0.0
 34
0.0
 15
0.0
 25
0.0
 35
0.0
146
0.0
 13
0.0
 23
0.0
 33
0.0
 16
1.0
 26
0.0
 36
0.0
 17
0.0
 27
1.0
 37
0.0
 76
     0
330
5D
  0
LAYOUT
  5
22
102
{ACAD_REACTORS
330
1A
102
}
330
1A
100
AcDbPlotSettings
  1

  2
Adobe PDF
  4
Letter
  6

 40
3.174999952316284
 41
3.174999952316284
 42
3.175003051757812
 43
3.17498779296875
 44
215.8999938964843
 45
279.3999938964843
 46
29.20999999999999
 47
19.55799999999999
 48
16.73109557412755
 49
5.508415948511895
140
25.95031244399837
141
11.46085792305349
142
1.0
143
1.0
 70
 11940
 72
     0
 73
     1
 74
     4
  7

 75
     0
147
1.0
148
-424.9698275828397
149
-139.9137650922021
100
AcDbLayout
  1
Model
 70
     1
 71
     0
 10
0.0
 20
0.0
 11
12.0
 21
9.0
 12
0.0
 22
0.0
 32
0.0
 14
0.0
 24
0.0
 34
0.0
 15
0.0
 25
0.0
 35
0.0
146
0.0
 13
0.0
 23
0.0
 33
0.0
 16
1.0
 26
0.0
 36
0.0
 17
0.0
 27
1.0
 37
0.0
 76
     0
330
1F
  0
MLINESTYLE
  5
18
102
{ACAD_REACTORS
330
17
102
}
330
17
100
AcDbMlineStyle
  2
STANDARD
 70
     0
  3

 62
   256
 51
90.0
 52
90.0
 71
     2
 49
0.5
 62
   256
  6
BYLAYER
 49
-0.5
 62
   256
  6
BYLAYER
  0
ACDBPLACEHOLDER
  5
F
102
{ACAD_REACTORS
330
E
102
}
330
E
  0
ENDSEC
  0
EOF
